<svg width="64" height="64" viewBox="0 0 64 64" fill="none" xmlns="http://www.w3.org/2000/svg">
<path d="M38.0074 23.9007V32.6007H45.8074C46.4074 32.6007 46.7074 33.2007 46.7074 33.8007L45.5074 39.5007C45.5074 39.8007 44.9074 40.1007 44.6074 40.1007H38.0074V62.0006H29.0074V40.4007H23.9074C23.3074 40.4007 23.0074 40.1007 23.0074 39.5007V33.8007C23.0074 33.2007 23.3074 32.9007 23.9074 32.9007H29.0074V23.0007C29.0074 17.9007 32.9074 14.0007 38.0074 14.0007H46.1074C46.7074 14.0007 47.0074 14.3007 47.0074 14.9007V22.1007C47.0074 22.7007 46.7074 23.0007 46.1074 23.0007H38.9074C38.3074 23.0007 38.0074 23.3007 38.0074 23.9007Z" stroke="#145262" stroke-width="4" stroke-miterlimit="10" stroke-linecap="round"/>
<path d="M41.0078 62H23.0078C8.00781 62 2.00781 56 2.00781 41V23C2.00781 8 8.00781 2 23.0078 2H41.0078C56.0078 2 62.0078 8 62.0078 23V41C62.0078 56 56.0078 62 41.0078 62Z" stroke="#145262" stroke-width="4" stroke-linecap="round" stroke-linejoin="round"/>
</svg>
