<svg width="64" height="64" viewBox="0 0 64 64" fill="none" xmlns="http://www.w3.org/2000/svg">
<path d="M23.0078 62H41.0078C56.0078 62 62.0078 56 62.0078 41V23C62.0078 8 56.0078 2 41.0078 2H23.0078C8.00781 2 2.00781 8 2.00781 23V41C2.00781 56 8.00781 62 23.0078 62Z" stroke="#9B2693" stroke-width="4" stroke-linecap="round" stroke-linejoin="round"/>
<path d="M32.0078 42.5008C37.8068 42.5008 42.5078 37.7998 42.5078 32.0007C42.5078 26.2017 37.8068 21.5007 32.0078 21.5007C26.2088 21.5007 21.5078 26.2017 21.5078 32.0007C21.5078 37.7998 26.2088 42.5008 32.0078 42.5008Z" stroke="#9B2693" stroke-width="4" stroke-linecap="round" stroke-linejoin="round"/>
<path d="M48.9161 17H48.9766" stroke="#9B2693" stroke-width="4" stroke-linecap="round" stroke-linejoin="round"/>
</svg>
