<svg xmlns="http://www.w3.org/2000/svg" xmlns:xlink="http://www.w3.org/1999/xlink" width="500" zoomAndPan="magnify" viewBox="0 0 375 374.999991" height="500" preserveAspectRatio="xMidYMid meet" version="1.0"><defs><filter x="0%" y="0%" width="100%" height="100%" id="2c3d488a35"><feColorMatrix values="0 0 0 0 1 0 0 0 0 1 0 0 0 0 1 0 0 0 1 0" color-interpolation-filters="sRGB"/></filter><g/><mask id="d815a51324"><g filter="url(#2c3d488a35)"><rect x="-37.5" width="450" fill="#000000" y="-37.499999" height="449.999989" fill-opacity="0.7"/></g></mask><clipPath id="70ccb0beb6"><path d="M 0 0 L 375 0 L 375 375 L 0 375 Z M 0 0 " clip-rule="nonzero"/></clipPath><clipPath id="60b80e1a52"><path d="M 187.5 0 C 83.945312 0 0 83.945312 0 187.5 C 0 291.054688 83.945312 375 187.5 375 C 291.054688 375 375 291.054688 375 187.5 C 375 83.945312 291.054688 0 187.5 0 Z M 187.5 0 " clip-rule="nonzero"/></clipPath><clipPath id="7e93d661c6"><rect x="0" width="375" y="0" height="375"/></clipPath><clipPath id="24096679ed"><path d="M 140 26.144531 L 235 26.144531 L 235 121 L 140 121 Z M 140 26.144531 " clip-rule="nonzero"/></clipPath><clipPath id="61ade28c54"><path d="M 64.9375 82 L 153 82 L 153 149 L 64.9375 149 Z M 64.9375 82 " clip-rule="nonzero"/></clipPath><clipPath id="d48eb17b8b"><path d="M 64.9375 139 L 310 139 L 310 290 L 64.9375 290 Z M 64.9375 139 " clip-rule="nonzero"/></clipPath><clipPath id="0a62ff57e5"><path d="M 64.9375 139 L 310 139 L 310 149 L 64.9375 149 Z M 64.9375 139 " clip-rule="nonzero"/></clipPath></defs><g mask="url(#d815a51324)"><g transform="matrix(1, 0, 0, 1, 0, 0)"><g clip-path="url(#7e93d661c6)"><g clip-path="url(#70ccb0beb6)"><g clip-path="url(#60b80e1a52)"><rect x="-82.5" width="540" fill="#ff8e17" height="539.999987" y="-82.499998" fill-opacity="1"/></g></g></g></g></g><path fill="#ffffff" d="M 187.265625 78.121094 C 186.335938 78.121094 185.417969 78.03125 184.511719 77.847656 C 183.601562 77.667969 182.71875 77.402344 181.863281 77.046875 C 181.007812 76.691406 180.191406 76.257812 179.421875 75.742188 C 178.652344 75.226562 177.9375 74.640625 177.285156 73.988281 C 176.628906 73.332031 176.042969 72.617188 175.527344 71.847656 C 175.011719 71.078125 174.578125 70.261719 174.222656 69.40625 C 173.871094 68.550781 173.601562 67.667969 173.421875 66.757812 C 173.238281 65.851562 173.148438 64.933594 173.148438 64.007812 C 173.148438 63.078125 173.238281 62.160156 173.421875 61.253906 C 173.601562 60.34375 173.871094 59.460938 174.222656 58.605469 C 174.578125 57.75 175.011719 56.933594 175.527344 56.164062 C 176.042969 55.394531 176.628906 54.679688 177.285156 54.027344 C 177.9375 53.371094 178.652344 52.785156 179.421875 52.269531 C 180.191406 51.753906 181.007812 51.320312 181.863281 50.964844 C 182.71875 50.609375 183.601562 50.34375 184.511719 50.164062 C 185.417969 49.980469 186.335938 49.890625 187.265625 49.890625 C 188.191406 49.890625 189.109375 49.980469 190.019531 50.164062 C 190.925781 50.34375 191.808594 50.609375 192.664062 50.964844 C 193.523438 51.320312 194.335938 51.753906 195.105469 52.269531 C 195.875 52.785156 196.589844 53.371094 197.246094 54.027344 C 197.898438 54.679688 198.484375 55.394531 199 56.164062 C 199.515625 56.933594 199.949219 57.75 200.304688 58.605469 C 200.660156 59.460938 200.925781 60.34375 201.109375 61.253906 C 201.289062 62.160156 201.378906 63.078125 201.378906 64.007812 C 201.378906 64.316406 201.347656 64.621094 201.289062 64.925781 C 201.226562 65.226562 201.140625 65.519531 201.019531 65.804688 C 200.902344 66.09375 200.757812 66.363281 200.585938 66.621094 C 200.414062 66.875 200.21875 67.113281 200 67.332031 C 199.78125 67.550781 199.542969 67.746094 199.289062 67.917969 C 199.03125 68.089844 198.757812 68.234375 198.472656 68.351562 C 198.1875 68.472656 197.894531 68.558594 197.589844 68.621094 C 197.289062 68.679688 196.984375 68.710938 196.675781 68.710938 C 196.363281 68.710938 196.058594 68.679688 195.757812 68.621094 C 195.453125 68.558594 195.160156 68.472656 194.875 68.351562 C 194.589844 68.234375 194.316406 68.089844 194.058594 67.917969 C 193.804688 67.746094 193.566406 67.550781 193.347656 67.332031 C 193.128906 67.113281 192.933594 66.875 192.761719 66.621094 C 192.589844 66.363281 192.445312 66.09375 192.328125 65.804688 C 192.207031 65.519531 192.121094 65.226562 192.058594 64.925781 C 192 64.621094 191.96875 64.316406 191.96875 64.007812 C 191.96875 63.695312 191.9375 63.390625 191.878906 63.089844 C 191.820312 62.785156 191.730469 62.492188 191.609375 62.207031 C 191.492188 61.921875 191.347656 61.648438 191.175781 61.390625 C 191.003906 61.136719 190.808594 60.898438 190.589844 60.679688 C 190.371094 60.460938 190.136719 60.265625 189.878906 60.09375 C 189.621094 59.921875 189.351562 59.777344 189.066406 59.660156 C 188.777344 59.542969 188.484375 59.453125 188.183594 59.390625 C 187.878906 59.332031 187.574219 59.300781 187.265625 59.300781 C 186.957031 59.300781 186.648438 59.332031 186.347656 59.390625 C 186.042969 59.453125 185.75 59.542969 185.464844 59.660156 C 185.179688 59.777344 184.90625 59.921875 184.648438 60.09375 C 184.394531 60.265625 184.15625 60.460938 183.9375 60.679688 C 183.71875 60.898438 183.523438 61.136719 183.351562 61.390625 C 183.179688 61.648438 183.035156 61.921875 182.917969 62.207031 C 182.800781 62.492188 182.710938 62.785156 182.648438 63.089844 C 182.589844 63.390625 182.558594 63.695312 182.558594 64.007812 C 182.558594 64.316406 182.589844 64.621094 182.648438 64.925781 C 182.710938 65.226562 182.800781 65.519531 182.917969 65.804688 C 183.035156 66.09375 183.179688 66.363281 183.351562 66.621094 C 183.523438 66.875 183.71875 67.113281 183.9375 67.332031 C 184.15625 67.550781 184.394531 67.746094 184.648438 67.917969 C 184.90625 68.089844 185.179688 68.234375 185.464844 68.351562 C 185.75 68.472656 186.042969 68.558594 186.347656 68.621094 C 186.648438 68.679688 186.957031 68.710938 187.265625 68.710938 C 187.574219 68.710938 187.878906 68.742188 188.183594 68.800781 C 188.484375 68.863281 188.777344 68.949219 189.066406 69.070312 C 189.351562 69.1875 189.621094 69.332031 189.878906 69.503906 C 190.136719 69.675781 190.371094 69.871094 190.589844 70.089844 C 190.808594 70.308594 191.003906 70.542969 191.175781 70.800781 C 191.347656 71.058594 191.492188 71.328125 191.609375 71.613281 C 191.730469 71.902344 191.820312 72.195312 191.878906 72.496094 C 191.9375 72.800781 191.96875 73.105469 191.96875 73.414062 C 191.96875 73.722656 191.9375 74.03125 191.878906 74.332031 C 191.820312 74.636719 191.730469 74.929688 191.609375 75.214844 C 191.492188 75.5 191.347656 75.773438 191.175781 76.03125 C 191.003906 76.285156 190.808594 76.523438 190.589844 76.742188 C 190.371094 76.960938 190.136719 77.15625 189.878906 77.328125 C 189.621094 77.5 189.351562 77.644531 189.066406 77.761719 C 188.777344 77.878906 188.484375 77.96875 188.183594 78.03125 C 187.878906 78.089844 187.574219 78.121094 187.265625 78.121094 Z M 187.265625 78.121094 " fill-opacity="1" fill-rule="nonzero"/><path fill="#ffffff" d="M 187.265625 96.941406 C 186.335938 96.9375 185.421875 96.847656 184.511719 96.664062 C 183.601562 96.484375 182.722656 96.214844 181.867188 95.859375 C 181.007812 95.507812 180.195312 95.070312 179.425781 94.554688 C 178.65625 94.042969 177.945312 93.457031 177.289062 92.800781 C 176.632812 92.144531 176.046875 91.433594 175.535156 90.664062 C 175.019531 89.894531 174.582031 89.078125 174.226562 88.222656 C 173.875 87.367188 173.605469 86.484375 173.421875 85.578125 C 173.242188 84.667969 173.152344 83.75 173.148438 82.824219 C 173.148438 82.515625 173.179688 82.210938 173.238281 81.90625 C 173.300781 81.605469 173.390625 81.308594 173.507812 81.023438 C 173.625 80.738281 173.769531 80.46875 173.941406 80.210938 C 174.113281 79.953125 174.308594 79.71875 174.527344 79.5 C 174.746094 79.28125 174.984375 79.085938 175.242188 78.914062 C 175.496094 78.742188 175.769531 78.597656 176.054688 78.480469 C 176.339844 78.359375 176.632812 78.269531 176.9375 78.210938 C 177.238281 78.152344 177.546875 78.121094 177.855469 78.121094 C 178.164062 78.121094 178.46875 78.152344 178.773438 78.210938 C 179.074219 78.269531 179.371094 78.359375 179.65625 78.480469 C 179.941406 78.597656 180.210938 78.742188 180.46875 78.914062 C 180.726562 79.085938 180.964844 79.28125 181.179688 79.5 C 181.398438 79.71875 181.59375 79.953125 181.765625 80.210938 C 181.9375 80.46875 182.082031 80.738281 182.203125 81.023438 C 182.320312 81.308594 182.410156 81.605469 182.46875 81.90625 C 182.527344 82.210938 182.558594 82.515625 182.558594 82.824219 C 182.558594 83.132812 182.589844 83.441406 182.648438 83.742188 C 182.710938 84.046875 182.800781 84.339844 182.917969 84.625 C 183.035156 84.910156 183.179688 85.183594 183.351562 85.4375 C 183.523438 85.695312 183.71875 85.933594 183.9375 86.152344 C 184.15625 86.371094 184.394531 86.566406 184.648438 86.738281 C 184.90625 86.910156 185.179688 87.054688 185.464844 87.171875 C 185.75 87.289062 186.042969 87.378906 186.347656 87.441406 C 186.648438 87.5 186.957031 87.53125 187.265625 87.53125 C 187.574219 87.53125 187.878906 87.5 188.183594 87.441406 C 188.484375 87.378906 188.777344 87.289062 189.066406 87.171875 C 189.351562 87.054688 189.621094 86.910156 189.878906 86.738281 C 190.136719 86.566406 190.371094 86.371094 190.589844 86.152344 C 190.808594 85.933594 191.003906 85.695312 191.175781 85.4375 C 191.347656 85.183594 191.492188 84.910156 191.609375 84.625 C 191.730469 84.339844 191.820312 84.046875 191.878906 83.742188 C 191.9375 83.441406 191.96875 83.132812 191.96875 82.824219 C 191.96875 82.515625 191.9375 82.210938 191.878906 81.90625 C 191.820312 81.605469 191.730469 81.308594 191.609375 81.023438 C 191.492188 80.738281 191.347656 80.46875 191.175781 80.210938 C 191.003906 79.953125 190.808594 79.71875 190.589844 79.5 C 190.371094 79.28125 190.136719 79.085938 189.878906 78.914062 C 189.621094 78.742188 189.351562 78.597656 189.066406 78.480469 C 188.777344 78.359375 188.484375 78.269531 188.183594 78.210938 C 187.878906 78.152344 187.574219 78.121094 187.265625 78.121094 C 186.957031 78.121094 186.648438 78.089844 186.347656 78.03125 C 186.042969 77.96875 185.75 77.878906 185.464844 77.761719 C 185.179688 77.644531 184.90625 77.5 184.648438 77.328125 C 184.394531 77.15625 184.15625 76.960938 183.9375 76.742188 C 183.71875 76.523438 183.523438 76.285156 183.351562 76.03125 C 183.179688 75.773438 183.035156 75.5 182.917969 75.214844 C 182.800781 74.929688 182.710938 74.636719 182.648438 74.332031 C 182.589844 74.03125 182.558594 73.722656 182.558594 73.414062 C 182.558594 73.105469 182.589844 72.800781 182.648438 72.496094 C 182.710938 72.195312 182.800781 71.902344 182.917969 71.613281 C 183.035156 71.328125 183.179688 71.058594 183.351562 70.800781 C 183.523438 70.542969 183.71875 70.308594 183.9375 70.089844 C 184.15625 69.871094 184.394531 69.675781 184.648438 69.503906 C 184.90625 69.332031 185.179688 69.1875 185.464844 69.070312 C 185.75 68.949219 186.042969 68.863281 186.347656 68.800781 C 186.648438 68.742188 186.957031 68.710938 187.265625 68.710938 C 188.191406 68.710938 189.109375 68.800781 190.019531 68.980469 C 190.925781 69.164062 191.808594 69.429688 192.664062 69.785156 C 193.523438 70.140625 194.335938 70.574219 195.105469 71.089844 C 195.875 71.605469 196.589844 72.191406 197.246094 72.84375 C 197.898438 73.5 198.484375 74.214844 199 74.984375 C 199.515625 75.753906 199.949219 76.566406 200.304688 77.425781 C 200.660156 78.28125 200.925781 79.164062 201.109375 80.070312 C 201.289062 80.980469 201.378906 81.898438 201.378906 82.824219 C 201.378906 83.753906 201.289062 84.667969 201.109375 85.578125 C 200.925781 86.488281 200.660156 87.371094 200.304688 88.226562 C 199.949219 89.082031 199.515625 89.894531 199 90.667969 C 198.484375 91.4375 197.898438 92.148438 197.246094 92.804688 C 196.589844 93.460938 195.875 94.046875 195.105469 94.5625 C 194.335938 95.074219 193.523438 95.511719 192.664062 95.867188 C 191.808594 96.21875 190.925781 96.488281 190.019531 96.667969 C 189.109375 96.847656 188.191406 96.941406 187.265625 96.941406 Z M 187.265625 96.941406 " fill-opacity="1" fill-rule="nonzero"/><path fill="#ffffff" d="M 187.265625 59.300781 C 186.957031 59.300781 186.648438 59.269531 186.347656 59.210938 C 186.042969 59.152344 185.75 59.0625 185.464844 58.941406 C 185.179688 58.824219 184.90625 58.679688 184.648438 58.507812 C 184.394531 58.335938 184.15625 58.140625 183.9375 57.921875 C 183.71875 57.703125 183.523438 57.46875 183.351562 57.210938 C 183.179688 56.953125 183.035156 56.683594 182.917969 56.398438 C 182.800781 56.113281 182.710938 55.816406 182.648438 55.515625 C 182.589844 55.210938 182.558594 54.90625 182.558594 54.597656 L 182.558594 49.890625 C 182.558594 49.582031 182.589844 49.277344 182.648438 48.972656 C 182.710938 48.671875 182.800781 48.375 182.917969 48.089844 C 183.035156 47.804688 183.179688 47.535156 183.351562 47.277344 C 183.523438 47.019531 183.71875 46.78125 183.9375 46.566406 C 184.15625 46.347656 184.394531 46.152344 184.648438 45.980469 C 184.90625 45.808594 185.179688 45.664062 185.464844 45.542969 C 185.75 45.425781 186.042969 45.335938 186.347656 45.277344 C 186.648438 45.21875 186.957031 45.1875 187.265625 45.1875 C 187.574219 45.1875 187.878906 45.21875 188.183594 45.277344 C 188.484375 45.335938 188.777344 45.425781 189.066406 45.542969 C 189.351562 45.664062 189.621094 45.808594 189.878906 45.980469 C 190.136719 46.152344 190.371094 46.347656 190.589844 46.566406 C 190.808594 46.78125 191.003906 47.019531 191.175781 47.277344 C 191.347656 47.535156 191.492188 47.804688 191.609375 48.089844 C 191.730469 48.375 191.820312 48.671875 191.878906 48.972656 C 191.9375 49.277344 191.96875 49.582031 191.96875 49.890625 L 191.96875 54.597656 C 191.96875 54.90625 191.9375 55.210938 191.878906 55.515625 C 191.820312 55.816406 191.730469 56.113281 191.609375 56.398438 C 191.492188 56.683594 191.347656 56.953125 191.175781 57.210938 C 191.003906 57.46875 190.808594 57.703125 190.589844 57.921875 C 190.371094 58.140625 190.136719 58.335938 189.878906 58.507812 C 189.621094 58.679688 189.351562 58.824219 189.066406 58.941406 C 188.777344 59.0625 188.484375 59.152344 188.183594 59.210938 C 187.878906 59.269531 187.574219 59.300781 187.265625 59.300781 Z M 187.265625 59.300781 " fill-opacity="1" fill-rule="nonzero"/><path fill="#ffffff" d="M 187.265625 101.644531 C 186.957031 101.644531 186.648438 101.613281 186.347656 101.554688 C 186.042969 101.492188 185.75 101.40625 185.464844 101.285156 C 185.179688 101.167969 184.90625 101.023438 184.648438 100.851562 C 184.394531 100.679688 184.15625 100.484375 183.9375 100.265625 C 183.71875 100.046875 183.523438 99.808594 183.351562 99.554688 C 183.179688 99.296875 183.035156 99.027344 182.917969 98.738281 C 182.800781 98.453125 182.710938 98.160156 182.648438 97.859375 C 182.589844 97.554688 182.558594 97.25 182.558594 96.941406 L 182.558594 92.234375 C 182.558594 91.925781 182.589844 91.621094 182.648438 91.316406 C 182.710938 91.015625 182.800781 90.71875 182.917969 90.433594 C 183.035156 90.148438 183.179688 89.878906 183.351562 89.621094 C 183.523438 89.363281 183.71875 89.125 183.9375 88.90625 C 184.15625 88.691406 184.394531 88.496094 184.648438 88.324219 C 184.90625 88.152344 185.179688 88.007812 185.464844 87.886719 C 185.75 87.769531 186.042969 87.679688 186.347656 87.621094 C 186.648438 87.558594 186.957031 87.53125 187.265625 87.53125 C 187.574219 87.53125 187.878906 87.558594 188.183594 87.621094 C 188.484375 87.679688 188.777344 87.769531 189.066406 87.886719 C 189.351562 88.007812 189.621094 88.152344 189.878906 88.324219 C 190.136719 88.496094 190.371094 88.691406 190.589844 88.90625 C 190.808594 89.125 191.003906 89.363281 191.175781 89.621094 C 191.347656 89.878906 191.492188 90.148438 191.609375 90.433594 C 191.730469 90.71875 191.820312 91.015625 191.878906 91.316406 C 191.9375 91.621094 191.96875 91.925781 191.96875 92.234375 L 191.96875 96.941406 C 191.96875 97.25 191.9375 97.554688 191.878906 97.859375 C 191.820312 98.160156 191.730469 98.453125 191.609375 98.738281 C 191.492188 99.027344 191.347656 99.296875 191.175781 99.554688 C 191.003906 99.808594 190.808594 100.046875 190.589844 100.265625 C 190.371094 100.484375 190.136719 100.679688 189.878906 100.851562 C 189.621094 101.023438 189.351562 101.167969 189.066406 101.285156 C 188.777344 101.40625 188.484375 101.492188 188.183594 101.554688 C 187.878906 101.613281 187.574219 101.644531 187.265625 101.644531 Z M 187.265625 101.644531 " fill-opacity="1" fill-rule="nonzero"/><g clip-path="url(#24096679ed)"><path fill="#ffffff" d="M 187.265625 120.464844 C 185.722656 120.464844 184.1875 120.386719 182.652344 120.238281 C 181.121094 120.085938 179.597656 119.859375 178.085938 119.558594 C 176.574219 119.257812 175.082031 118.886719 173.605469 118.4375 C 172.132812 117.992188 170.683594 117.472656 169.257812 116.882812 C 167.835938 116.292969 166.445312 115.636719 165.085938 114.910156 C 163.726562 114.183594 162.40625 113.390625 161.125 112.535156 C 159.84375 111.679688 158.609375 110.761719 157.417969 109.785156 C 156.226562 108.808594 155.085938 107.773438 153.996094 106.683594 C 152.90625 105.59375 151.871094 104.453125 150.894531 103.261719 C 149.917969 102.070312 149 100.835938 148.144531 99.554688 C 147.289062 98.273438 146.496094 96.953125 145.769531 95.59375 C 145.046875 94.234375 144.386719 92.84375 143.796875 91.421875 C 143.207031 89.996094 142.6875 88.546875 142.242188 87.074219 C 141.792969 85.597656 141.421875 84.105469 141.121094 82.59375 C 140.820312 81.082031 140.59375 79.5625 140.441406 78.027344 C 140.292969 76.492188 140.214844 74.957031 140.214844 73.414062 C 140.214844 71.875 140.292969 70.335938 140.441406 68.804688 C 140.59375 67.269531 140.820312 65.75 141.121094 64.238281 C 141.421875 62.726562 141.792969 61.234375 142.242188 59.757812 C 142.6875 58.285156 143.207031 56.835938 143.796875 55.410156 C 144.386719 53.988281 145.046875 52.597656 145.769531 51.238281 C 146.496094 49.878906 147.289062 48.558594 148.144531 47.277344 C 149 45.996094 149.917969 44.757812 150.894531 43.570312 C 151.871094 42.378906 152.90625 41.238281 153.996094 40.148438 C 155.085938 39.058594 156.226562 38.023438 157.417969 37.046875 C 158.609375 36.070312 159.84375 35.152344 161.125 34.296875 C 162.40625 33.441406 163.726562 32.648438 165.085938 31.921875 C 166.445312 31.195312 167.835938 30.539062 169.257812 29.949219 C 170.683594 29.359375 172.132812 28.839844 173.605469 28.394531 C 175.082031 27.945312 176.574219 27.570312 178.085938 27.269531 C 179.597656 26.972656 181.121094 26.746094 182.652344 26.59375 C 184.1875 26.441406 185.722656 26.367188 187.265625 26.367188 C 188.804688 26.367188 190.34375 26.441406 191.875 26.59375 C 193.410156 26.746094 194.929688 26.972656 196.441406 27.269531 C 197.953125 27.570312 199.445312 27.945312 200.921875 28.394531 C 202.394531 28.839844 203.84375 29.359375 205.269531 29.949219 C 206.691406 30.539062 208.082031 31.195312 209.441406 31.921875 C 210.800781 32.648438 212.121094 33.441406 213.402344 34.296875 C 214.683594 35.152344 215.921875 36.070312 217.109375 37.046875 C 218.300781 38.023438 219.441406 39.058594 220.53125 40.148438 C 221.621094 41.238281 222.65625 42.378906 223.632812 43.570312 C 224.609375 44.757812 225.527344 45.996094 226.382812 47.277344 C 227.238281 48.558594 228.03125 49.878906 228.757812 51.238281 C 229.484375 52.597656 230.140625 53.988281 230.730469 55.410156 C 231.320312 56.835938 231.839844 58.285156 232.285156 59.757812 C 232.734375 61.234375 233.109375 62.726562 233.410156 64.238281 C 233.710938 65.75 233.933594 67.269531 234.085938 68.804688 C 234.238281 70.335938 234.3125 71.875 234.3125 73.414062 C 234.3125 74.957031 234.234375 76.492188 234.082031 78.027344 C 233.929688 79.558594 233.703125 81.078125 233.398438 82.589844 C 233.097656 84.101562 232.722656 85.59375 232.273438 87.066406 C 231.828125 88.539062 231.308594 89.988281 230.714844 91.410156 C 230.125 92.835938 229.46875 94.226562 228.742188 95.582031 C 228.015625 96.941406 227.222656 98.261719 226.367188 99.542969 C 225.511719 100.820312 224.59375 102.058594 223.617188 103.25 C 222.640625 104.4375 221.605469 105.578125 220.515625 106.667969 C 219.425781 107.757812 218.289062 108.789062 217.097656 109.769531 C 215.90625 110.746094 214.671875 111.664062 213.390625 112.519531 C 212.109375 113.375 210.789062 114.164062 209.433594 114.894531 C 208.074219 115.621094 206.683594 116.277344 205.261719 116.867188 C 203.835938 117.457031 202.390625 117.976562 200.914062 118.425781 C 199.441406 118.875 197.949219 119.25 196.4375 119.550781 C 194.929688 119.851562 193.40625 120.078125 191.875 120.230469 C 190.339844 120.386719 188.804688 120.460938 187.265625 120.464844 Z M 187.265625 35.777344 C 186.03125 35.777344 184.800781 35.835938 183.574219 35.957031 C 182.347656 36.078125 181.128906 36.261719 179.921875 36.5 C 178.710938 36.742188 177.519531 37.039062 176.339844 37.398438 C 175.160156 37.753906 174 38.171875 172.859375 38.640625 C 171.722656 39.113281 170.609375 39.640625 169.523438 40.222656 C 168.433594 40.800781 167.378906 41.433594 166.351562 42.121094 C 165.328125 42.804688 164.339844 43.539062 163.386719 44.320312 C 162.433594 45.101562 161.519531 45.929688 160.648438 46.800781 C 159.777344 47.671875 158.953125 48.585938 158.167969 49.539062 C 157.386719 50.492188 156.652344 51.480469 155.96875 52.503906 C 155.285156 53.53125 154.652344 54.585938 154.070312 55.671875 C 153.488281 56.761719 152.960938 57.875 152.492188 59.011719 C 152.019531 60.152344 151.605469 61.308594 151.246094 62.488281 C 150.886719 63.667969 150.589844 64.863281 150.347656 66.074219 C 150.109375 67.28125 149.929688 68.5 149.808594 69.726562 C 149.6875 70.953125 149.625 72.183594 149.625 73.414062 C 149.625 74.648438 149.6875 75.878906 149.808594 77.105469 C 149.929688 78.332031 150.109375 79.550781 150.347656 80.757812 C 150.589844 81.96875 150.886719 83.160156 151.246094 84.339844 C 151.605469 85.519531 152.019531 86.679688 152.492188 87.820312 C 152.960938 88.957031 153.488281 90.070312 154.070312 91.160156 C 154.652344 92.246094 155.285156 93.300781 155.96875 94.328125 C 156.652344 95.351562 157.386719 96.339844 158.167969 97.292969 C 158.953125 98.246094 159.777344 99.160156 160.648438 100.03125 C 161.519531 100.902344 162.433594 101.730469 163.386719 102.511719 C 164.339844 103.292969 165.328125 104.027344 166.351562 104.710938 C 167.378906 105.394531 168.433594 106.027344 169.523438 106.609375 C 170.609375 107.191406 171.722656 107.71875 172.859375 108.1875 C 174 108.660156 175.160156 109.074219 176.339844 109.433594 C 177.519531 109.792969 178.710938 110.089844 179.921875 110.332031 C 181.128906 110.570312 182.347656 110.753906 183.574219 110.871094 C 184.800781 110.992188 186.03125 111.054688 187.265625 111.054688 C 188.496094 111.054688 189.726562 110.992188 190.953125 110.871094 C 192.179688 110.753906 193.398438 110.570312 194.605469 110.332031 C 195.816406 110.089844 197.011719 109.792969 198.191406 109.433594 C 199.371094 109.074219 200.527344 108.660156 201.667969 108.1875 C 202.808594 107.71875 203.917969 107.191406 205.007812 106.609375 C 206.09375 106.027344 207.148438 105.394531 208.175781 104.710938 C 209.199219 104.027344 210.1875 103.292969 211.140625 102.511719 C 212.09375 101.730469 213.007812 100.902344 213.878906 100.03125 C 214.75 99.160156 215.578125 98.246094 216.359375 97.292969 C 217.140625 96.339844 217.875 95.351562 218.558594 94.328125 C 219.246094 93.300781 219.878906 92.246094 220.457031 91.160156 C 221.039062 90.070312 221.566406 88.957031 222.039062 87.820312 C 222.507812 86.679688 222.925781 85.519531 223.28125 84.339844 C 223.640625 83.160156 223.9375 81.96875 224.179688 80.757812 C 224.421875 79.550781 224.601562 78.332031 224.722656 77.105469 C 224.84375 75.878906 224.902344 74.648438 224.902344 73.414062 C 224.902344 72.183594 224.839844 70.953125 224.71875 69.726562 C 224.59375 68.5 224.414062 67.285156 224.171875 66.074219 C 223.929688 64.867188 223.632812 63.671875 223.273438 62.496094 C 222.914062 61.316406 222.5 60.15625 222.027344 59.019531 C 221.554688 57.878906 221.027344 56.769531 220.445312 55.679688 C 219.863281 54.59375 219.230469 53.539062 218.546875 52.515625 C 217.859375 51.492188 217.128906 50.503906 216.347656 49.550781 C 215.5625 48.597656 214.738281 47.683594 213.867188 46.8125 C 212.996094 45.941406 212.082031 45.117188 211.128906 44.332031 C 210.179688 43.550781 209.1875 42.820312 208.164062 42.132812 C 207.140625 41.449219 206.085938 40.816406 205 40.234375 C 203.910156 39.652344 202.800781 39.125 201.660156 38.652344 C 200.523438 38.179688 199.363281 37.765625 198.183594 37.40625 C 197.007812 37.050781 195.8125 36.75 194.605469 36.507812 C 193.394531 36.265625 192.179688 36.085938 190.953125 35.960938 C 189.726562 35.839844 188.496094 35.777344 187.265625 35.777344 Z M 187.265625 35.777344 " fill-opacity="1" fill-rule="nonzero"/></g><path fill="#ffffff" d="M 248.425781 120.464844 L 126.101562 120.464844 C 125.792969 120.464844 125.488281 120.433594 125.183594 120.375 C 124.878906 120.3125 124.585938 120.222656 124.300781 120.105469 C 124.015625 119.988281 123.746094 119.84375 123.488281 119.671875 C 123.230469 119.5 122.992188 119.304688 122.773438 119.085938 C 122.554688 118.867188 122.359375 118.628906 122.191406 118.371094 C 122.019531 118.117188 121.875 117.84375 121.753906 117.558594 C 121.636719 117.273438 121.546875 116.980469 121.488281 116.675781 C 121.425781 116.375 121.398438 116.066406 121.398438 115.757812 C 121.398438 115.449219 121.425781 115.144531 121.488281 114.839844 C 121.546875 114.539062 121.636719 114.242188 121.753906 113.957031 C 121.875 113.671875 122.019531 113.402344 122.191406 113.144531 C 122.359375 112.886719 122.554688 112.652344 122.773438 112.433594 C 122.992188 112.214844 123.230469 112.019531 123.488281 111.847656 C 123.746094 111.675781 124.015625 111.53125 124.300781 111.414062 C 124.585938 111.292969 124.878906 111.203125 125.183594 111.144531 C 125.488281 111.085938 125.792969 111.054688 126.101562 111.054688 L 248.425781 111.054688 C 248.734375 111.054688 249.042969 111.085938 249.34375 111.144531 C 249.648438 111.203125 249.941406 111.292969 250.226562 111.414062 C 250.511719 111.53125 250.785156 111.675781 251.039062 111.847656 C 251.296875 112.019531 251.535156 112.214844 251.753906 112.433594 C 251.972656 112.652344 252.167969 112.886719 252.339844 113.144531 C 252.511719 113.402344 252.65625 113.671875 252.773438 113.957031 C 252.890625 114.242188 252.980469 114.539062 253.042969 114.839844 C 253.101562 115.144531 253.132812 115.449219 253.132812 115.757812 C 253.132812 116.066406 253.101562 116.375 253.042969 116.675781 C 252.980469 116.980469 252.890625 117.273438 252.773438 117.558594 C 252.65625 117.84375 252.511719 118.117188 252.339844 118.371094 C 252.167969 118.628906 251.972656 118.867188 251.753906 119.085938 C 251.535156 119.304688 251.296875 119.5 251.039062 119.671875 C 250.785156 119.84375 250.511719 119.988281 250.226562 120.105469 C 249.941406 120.222656 249.648438 120.3125 249.34375 120.375 C 249.042969 120.433594 248.734375 120.464844 248.425781 120.464844 Z M 248.425781 120.464844 " fill-opacity="1" fill-rule="nonzero"/><g clip-path="url(#61ade28c54)"><path fill="#ffffff" d="M 69.640625 148.691406 C 69.4375 148.691406 69.242188 148.679688 69.042969 148.652344 C 68.84375 148.628906 68.648438 148.589844 68.457031 148.539062 C 68.261719 148.488281 68.074219 148.429688 67.886719 148.351562 C 67.703125 148.277344 67.523438 148.191406 67.347656 148.09375 C 67.175781 148 67.007812 147.890625 66.847656 147.773438 C 66.6875 147.652344 66.535156 147.523438 66.390625 147.386719 C 66.246094 147.25 66.109375 147.101562 65.984375 146.945312 C 65.859375 146.792969 65.746094 146.628906 65.640625 146.460938 C 65.535156 146.289062 65.441406 146.113281 65.359375 145.933594 C 65.277344 145.75 65.207031 145.5625 65.148438 145.375 C 65.089844 145.183594 65.042969 144.988281 65.007812 144.792969 C 64.972656 144.59375 64.953125 144.398438 64.941406 144.199219 C 64.933594 144 64.9375 143.800781 64.953125 143.601562 C 64.972656 143.402344 65 143.203125 65.042969 143.007812 C 65.082031 142.8125 65.136719 142.621094 65.203125 142.433594 C 65.269531 142.246094 65.347656 142.0625 65.433594 141.882812 L 93.664062 85.425781 C 93.859375 85.035156 94.105469 84.679688 94.398438 84.355469 C 94.695312 84.035156 95.027344 83.757812 95.398438 83.527344 C 95.769531 83.296875 96.167969 83.125 96.585938 83.003906 C 97.007812 82.886719 97.4375 82.824219 97.871094 82.824219 L 147.367188 82.824219 C 147.675781 82.824219 147.980469 82.855469 148.285156 82.914062 C 148.589844 82.976562 148.882812 83.066406 149.167969 83.183594 C 149.453125 83.300781 149.722656 83.445312 149.980469 83.617188 C 150.238281 83.789062 150.476562 83.984375 150.695312 84.203125 C 150.914062 84.421875 151.109375 84.660156 151.277344 84.917969 C 151.449219 85.171875 151.597656 85.445312 151.714844 85.730469 C 151.832031 86.015625 151.921875 86.308594 151.980469 86.613281 C 152.042969 86.914062 152.070312 87.222656 152.070312 87.53125 C 152.070312 87.839844 152.042969 88.144531 151.980469 88.449219 C 151.921875 88.75 151.832031 89.046875 151.714844 89.332031 C 151.597656 89.617188 151.449219 89.886719 151.277344 90.144531 C 151.109375 90.402344 150.914062 90.636719 150.695312 90.855469 C 150.476562 91.074219 150.238281 91.269531 149.980469 91.441406 C 149.722656 91.613281 149.453125 91.757812 149.167969 91.875 C 148.882812 91.996094 148.589844 92.085938 148.285156 92.144531 C 147.980469 92.203125 147.675781 92.234375 147.367188 92.234375 L 100.78125 92.234375 L 73.851562 146.09375 C 73.65625 146.484375 73.410156 146.839844 73.117188 147.164062 C 72.820312 147.484375 72.488281 147.761719 72.117188 147.992188 C 71.742188 148.222656 71.347656 148.394531 70.925781 148.515625 C 70.503906 148.632812 70.078125 148.691406 69.640625 148.691406 Z M 69.640625 148.691406 " fill-opacity="1" fill-rule="nonzero"/></g><path fill="#ffffff" d="M 304.890625 148.691406 C 304.453125 148.695312 304.023438 148.632812 303.601562 148.515625 C 303.179688 148.394531 302.785156 148.222656 302.414062 147.992188 C 302.039062 147.761719 301.707031 147.484375 301.410156 147.164062 C 301.117188 146.839844 300.871094 146.484375 300.675781 146.09375 L 273.746094 92.234375 L 227.164062 92.234375 C 226.855469 92.234375 226.546875 92.203125 226.246094 92.144531 C 225.941406 92.085938 225.648438 91.996094 225.363281 91.875 C 225.078125 91.757812 224.804688 91.613281 224.550781 91.441406 C 224.292969 91.269531 224.054688 91.074219 223.835938 90.855469 C 223.617188 90.636719 223.421875 90.402344 223.25 90.144531 C 223.078125 89.886719 222.933594 89.617188 222.816406 89.332031 C 222.699219 89.046875 222.609375 88.75 222.550781 88.449219 C 222.488281 88.144531 222.457031 87.839844 222.457031 87.53125 C 222.457031 87.222656 222.488281 86.914062 222.550781 86.613281 C 222.609375 86.308594 222.699219 86.015625 222.816406 85.730469 C 222.933594 85.445312 223.078125 85.171875 223.25 84.917969 C 223.421875 84.660156 223.617188 84.421875 223.835938 84.203125 C 224.054688 83.984375 224.292969 83.789062 224.550781 83.617188 C 224.804688 83.445312 225.078125 83.300781 225.363281 83.183594 C 225.648438 83.066406 225.941406 82.976562 226.246094 82.914062 C 226.546875 82.855469 226.855469 82.824219 227.164062 82.824219 L 276.65625 82.824219 C 277.09375 82.824219 277.519531 82.886719 277.941406 83.003906 C 278.363281 83.125 278.757812 83.296875 279.128906 83.527344 C 279.5 83.757812 279.835938 84.035156 280.128906 84.355469 C 280.421875 84.679688 280.667969 85.035156 280.863281 85.425781 L 309.09375 141.882812 C 309.183594 142.0625 309.261719 142.246094 309.324219 142.433594 C 309.390625 142.621094 309.445312 142.8125 309.488281 143.007812 C 309.527344 143.203125 309.558594 143.402344 309.574219 143.601562 C 309.589844 143.800781 309.59375 144 309.585938 144.199219 C 309.578125 144.398438 309.554688 144.59375 309.519531 144.792969 C 309.488281 144.988281 309.441406 145.183594 309.382812 145.375 C 309.324219 145.5625 309.253906 145.75 309.167969 145.933594 C 309.085938 146.113281 308.992188 146.289062 308.886719 146.460938 C 308.785156 146.628906 308.667969 146.792969 308.542969 146.945312 C 308.417969 147.101562 308.28125 147.25 308.136719 147.386719 C 307.996094 147.523438 307.84375 147.652344 307.679688 147.773438 C 307.519531 147.890625 307.351562 148 307.179688 148.09375 C 307.003906 148.191406 306.824219 148.277344 306.640625 148.351562 C 306.453125 148.429688 306.265625 148.488281 306.074219 148.539062 C 305.878906 148.589844 305.683594 148.628906 305.484375 148.652344 C 305.289062 148.679688 305.089844 148.691406 304.890625 148.691406 Z M 304.890625 148.691406 " fill-opacity="1" fill-rule="nonzero"/><g clip-path="url(#d48eb17b8b)"><path fill="#ffffff" d="M 304.882812 289.835938 L 69.644531 289.835938 C 69.335938 289.835938 69.027344 289.808594 68.726562 289.746094 C 68.421875 289.6875 68.128906 289.597656 67.84375 289.480469 C 67.558594 289.359375 67.285156 289.214844 67.03125 289.042969 C 66.773438 288.871094 66.535156 288.679688 66.316406 288.460938 C 66.097656 288.242188 65.902344 288.003906 65.730469 287.746094 C 65.558594 287.488281 65.414062 287.21875 65.296875 286.933594 C 65.179688 286.648438 65.089844 286.351562 65.03125 286.050781 C 64.96875 285.746094 64.9375 285.441406 64.9375 285.132812 L 64.9375 143.988281 C 64.9375 143.679688 64.96875 143.375 65.03125 143.070312 C 65.089844 142.765625 65.179688 142.472656 65.296875 142.1875 C 65.414062 141.902344 65.558594 141.632812 65.730469 141.375 C 65.902344 141.117188 66.097656 140.878906 66.316406 140.660156 C 66.535156 140.441406 66.773438 140.246094 67.03125 140.074219 C 67.285156 139.90625 67.558594 139.757812 67.84375 139.640625 C 68.128906 139.523438 68.421875 139.433594 68.726562 139.375 C 69.027344 139.3125 69.335938 139.28125 69.644531 139.28125 C 69.953125 139.28125 70.257812 139.3125 70.5625 139.375 C 70.863281 139.433594 71.160156 139.523438 71.445312 139.640625 C 71.730469 139.757812 72 139.90625 72.257812 140.074219 C 72.515625 140.246094 72.753906 140.441406 72.96875 140.660156 C 73.1875 140.878906 73.382812 141.117188 73.554688 141.375 C 73.726562 141.632812 73.871094 141.902344 73.992188 142.1875 C 74.109375 142.472656 74.199219 142.765625 74.257812 143.070312 C 74.320312 143.375 74.347656 143.679688 74.347656 143.988281 L 74.347656 280.425781 L 300.179688 280.425781 L 300.179688 143.988281 C 300.179688 143.679688 300.210938 143.375 300.269531 143.070312 C 300.332031 142.765625 300.417969 142.472656 300.539062 142.1875 C 300.65625 141.902344 300.800781 141.632812 300.972656 141.375 C 301.144531 141.117188 301.339844 140.878906 301.558594 140.660156 C 301.777344 140.441406 302.015625 140.246094 302.269531 140.074219 C 302.527344 139.90625 302.796875 139.757812 303.085938 139.640625 C 303.371094 139.523438 303.664062 139.433594 303.96875 139.375 C 304.269531 139.3125 304.574219 139.28125 304.882812 139.28125 C 305.195312 139.28125 305.5 139.3125 305.800781 139.375 C 306.105469 139.433594 306.398438 139.523438 306.683594 139.640625 C 306.96875 139.757812 307.242188 139.90625 307.5 140.074219 C 307.753906 140.246094 307.992188 140.441406 308.210938 140.660156 C 308.429688 140.878906 308.625 141.117188 308.796875 141.375 C 308.96875 141.632812 309.113281 141.902344 309.230469 142.1875 C 309.347656 142.472656 309.4375 142.765625 309.5 143.070312 C 309.558594 143.375 309.589844 143.679688 309.589844 143.988281 L 309.589844 285.132812 C 309.589844 285.441406 309.558594 285.746094 309.5 286.050781 C 309.4375 286.351562 309.347656 286.648438 309.230469 286.933594 C 309.113281 287.21875 308.96875 287.488281 308.796875 287.746094 C 308.625 288.003906 308.429688 288.242188 308.210938 288.460938 C 307.992188 288.679688 307.753906 288.871094 307.5 289.042969 C 307.242188 289.214844 306.96875 289.359375 306.683594 289.480469 C 306.398438 289.597656 306.105469 289.6875 305.800781 289.746094 C 305.5 289.808594 305.195312 289.835938 304.882812 289.835938 Z M 304.882812 289.835938 " fill-opacity="1" fill-rule="nonzero"/></g><g clip-path="url(#0a62ff57e5)"><path fill="#ffffff" d="M 304.882812 148.691406 L 69.644531 148.691406 C 69.335938 148.691406 69.027344 148.664062 68.726562 148.601562 C 68.421875 148.542969 68.128906 148.453125 67.84375 148.335938 C 67.558594 148.214844 67.285156 148.070312 67.03125 147.898438 C 66.773438 147.726562 66.535156 147.53125 66.316406 147.316406 C 66.097656 147.097656 65.902344 146.859375 65.730469 146.601562 C 65.558594 146.34375 65.414062 146.074219 65.296875 145.789062 C 65.179688 145.503906 65.089844 145.207031 65.03125 144.90625 C 64.96875 144.601562 64.9375 144.296875 64.9375 143.988281 C 64.9375 143.679688 64.96875 143.375 65.03125 143.070312 C 65.089844 142.765625 65.179688 142.472656 65.296875 142.1875 C 65.414062 141.902344 65.558594 141.632812 65.730469 141.375 C 65.902344 141.117188 66.097656 140.878906 66.316406 140.660156 C 66.535156 140.441406 66.773438 140.246094 67.03125 140.074219 C 67.285156 139.90625 67.558594 139.757812 67.84375 139.640625 C 68.128906 139.523438 68.421875 139.433594 68.726562 139.375 C 69.027344 139.3125 69.335938 139.28125 69.644531 139.28125 L 304.882812 139.28125 C 305.195312 139.28125 305.5 139.3125 305.800781 139.375 C 306.105469 139.433594 306.398438 139.523438 306.683594 139.640625 C 306.96875 139.757812 307.242188 139.90625 307.5 140.074219 C 307.753906 140.246094 307.992188 140.441406 308.210938 140.660156 C 308.429688 140.878906 308.625 141.117188 308.796875 141.375 C 308.96875 141.632812 309.113281 141.902344 309.230469 142.1875 C 309.347656 142.472656 309.4375 142.765625 309.5 143.070312 C 309.558594 143.375 309.589844 143.679688 309.589844 143.988281 C 309.589844 144.296875 309.558594 144.601562 309.5 144.90625 C 309.4375 145.207031 309.347656 145.503906 309.230469 145.789062 C 309.113281 146.074219 308.96875 146.34375 308.796875 146.601562 C 308.625 146.859375 308.429688 147.097656 308.210938 147.316406 C 307.992188 147.53125 307.753906 147.726562 307.5 147.898438 C 307.242188 148.070312 306.96875 148.214844 306.683594 148.335938 C 306.398438 148.453125 306.105469 148.542969 305.800781 148.601562 C 305.5 148.664062 305.195312 148.691406 304.882812 148.691406 Z M 304.882812 148.691406 " fill-opacity="1" fill-rule="nonzero"/></g><path fill="#ffffff" d="M 187.265625 259.304688 C 185.964844 259.304688 184.855469 258.84375 183.9375 257.925781 L 144.015625 218.003906 C 143.367188 217.347656 142.753906 216.660156 142.175781 215.945312 C 141.597656 215.230469 141.054688 214.488281 140.546875 213.722656 C 140.039062 212.953125 139.570312 212.160156 139.140625 211.347656 C 138.710938 210.53125 138.320312 209.699219 137.972656 208.847656 C 137.625 207.996094 137.320312 207.128906 137.058594 206.246094 C 136.792969 205.363281 136.574219 204.46875 136.398438 203.566406 C 136.222656 202.664062 136.089844 201.753906 136.003906 200.835938 C 135.917969 199.917969 135.875 199 135.878906 198.078125 C 135.882812 197.160156 135.929688 196.242188 136.023438 195.324219 C 136.113281 194.410156 136.253906 193.5 136.433594 192.597656 C 136.617188 191.695312 136.839844 190.804688 137.109375 189.921875 C 137.378906 189.042969 137.691406 188.175781 138.042969 187.328125 C 138.398438 186.476562 138.792969 185.644531 139.226562 184.835938 C 139.664062 184.023438 140.136719 183.234375 140.648438 182.46875 C 141.160156 181.703125 141.710938 180.964844 142.292969 180.253906 C 142.878906 179.542969 143.496094 178.863281 144.148438 178.210938 C 144.796875 177.558594 145.480469 176.941406 146.191406 176.359375 C 146.902344 175.773438 147.640625 175.226562 148.40625 174.714844 C 149.171875 174.203125 149.957031 173.726562 150.769531 173.292969 C 151.582031 172.859375 152.414062 172.464844 153.261719 172.109375 C 154.113281 171.757812 154.976562 171.445312 155.859375 171.175781 C 156.738281 170.90625 157.628906 170.679688 158.53125 170.5 C 159.4375 170.316406 160.34375 170.179688 161.261719 170.085938 C 162.175781 169.996094 163.09375 169.945312 164.015625 169.945312 C 164.9375 169.941406 165.855469 169.984375 166.773438 170.070312 C 167.6875 170.15625 168.597656 170.289062 169.503906 170.464844 C 170.40625 170.640625 171.300781 170.859375 172.179688 171.125 C 173.0625 171.386719 173.929688 171.691406 174.78125 172.039062 C 175.636719 172.386719 176.46875 172.777344 177.28125 173.207031 C 178.097656 173.636719 178.886719 174.105469 179.65625 174.613281 C 180.425781 175.121094 181.167969 175.664062 181.882812 176.242188 C 182.597656 176.824219 183.28125 177.4375 183.9375 178.082031 L 187.265625 181.410156 L 190.589844 178.082031 C 191.246094 177.429688 191.929688 176.8125 192.644531 176.226562 C 193.359375 175.640625 194.101562 175.089844 194.871094 174.578125 C 195.640625 174.066406 196.429688 173.589844 197.246094 173.15625 C 198.0625 172.71875 198.898438 172.328125 199.75 171.972656 C 200.605469 171.621094 201.476562 171.308594 202.359375 171.042969 C 203.242188 170.773438 204.140625 170.550781 205.046875 170.371094 C 205.953125 170.1875 206.867188 170.054688 207.785156 169.964844 C 208.707031 169.875 209.628906 169.828125 210.550781 169.828125 C 211.476562 169.828125 212.398438 169.875 213.316406 169.964844 C 214.238281 170.054688 215.152344 170.1875 216.058594 170.371094 C 216.964844 170.550781 217.859375 170.773438 218.742188 171.042969 C 219.628906 171.308594 220.496094 171.621094 221.351562 171.972656 C 222.207031 172.328125 223.039062 172.71875 223.855469 173.15625 C 224.671875 173.589844 225.464844 174.066406 226.234375 174.578125 C 227 175.089844 227.742188 175.640625 228.457031 176.226562 C 229.175781 176.8125 229.859375 177.429688 230.511719 178.082031 C 231.164062 178.738281 231.785156 179.421875 232.371094 180.136719 C 232.957031 180.851562 233.503906 181.59375 234.015625 182.363281 C 234.53125 183.132812 235.003906 183.921875 235.4375 184.738281 C 235.875 185.554688 236.269531 186.390625 236.621094 187.242188 C 236.972656 188.097656 237.285156 188.964844 237.554688 189.851562 C 237.820312 190.734375 238.042969 191.632812 238.222656 192.539062 C 238.40625 193.445312 238.539062 194.355469 238.628906 195.277344 C 238.71875 196.195312 238.765625 197.117188 238.765625 198.042969 C 238.765625 198.964844 238.71875 199.886719 238.628906 200.808594 C 238.539062 201.726562 238.40625 202.640625 238.222656 203.546875 C 238.042969 204.453125 237.820312 205.347656 237.554688 206.234375 C 237.285156 207.117188 236.972656 207.988281 236.621094 208.84375 C 236.269531 209.695312 235.875 210.53125 235.4375 211.347656 C 235.003906 212.160156 234.53125 212.953125 234.015625 213.722656 C 233.503906 214.492188 232.957031 215.234375 232.371094 215.949219 C 231.785156 216.664062 231.164062 217.347656 230.511719 218.003906 L 190.589844 257.925781 C 189.671875 258.847656 188.5625 259.304688 187.265625 259.304688 Z M 163.980469 179.234375 C 163.054688 179.234375 162.132812 179.300781 161.21875 179.4375 C 160.300781 179.570312 159.402344 179.773438 158.515625 180.039062 C 157.628906 180.308594 156.769531 180.640625 155.929688 181.035156 C 155.09375 181.429688 154.289062 181.886719 153.519531 182.398438 C 152.75 182.914062 152.023438 183.480469 151.335938 184.101562 C 150.652344 184.722656 150.015625 185.390625 149.425781 186.105469 C 148.839844 186.820312 148.308594 187.574219 147.832031 188.371094 C 147.355469 189.164062 146.941406 189.988281 146.585938 190.84375 C 146.230469 191.699219 145.941406 192.574219 145.714844 193.472656 C 145.492188 194.371094 145.332031 195.277344 145.242188 196.199219 C 145.152344 197.121094 145.128906 198.042969 145.175781 198.96875 C 145.222656 199.894531 145.332031 200.808594 145.515625 201.714844 C 145.695312 202.625 145.941406 203.515625 146.253906 204.386719 C 146.566406 205.257812 146.941406 206.101562 147.375 206.917969 C 147.8125 207.734375 148.308594 208.511719 148.859375 209.253906 C 149.410156 210 150.015625 210.695312 150.667969 211.351562 L 187.265625 247.945312 L 223.859375 211.351562 C 224.292969 210.914062 224.707031 210.457031 225.097656 209.980469 C 225.488281 209.503906 225.851562 209.011719 226.195312 208.496094 C 226.535156 207.984375 226.851562 207.457031 227.140625 206.914062 C 227.433594 206.371094 227.695312 205.8125 227.929688 205.242188 C 228.164062 204.675781 228.371094 204.09375 228.550781 203.503906 C 228.730469 202.914062 228.878906 202.316406 229 201.714844 C 229.117188 201.109375 229.207031 200.5 229.269531 199.886719 C 229.328125 199.273438 229.359375 198.660156 229.359375 198.042969 C 229.359375 197.429688 229.328125 196.8125 229.269531 196.199219 C 229.207031 195.585938 229.117188 194.976562 229 194.375 C 228.878906 193.769531 228.730469 193.171875 228.550781 192.582031 C 228.371094 191.992188 228.164062 191.414062 227.929688 190.84375 C 227.695312 190.273438 227.433594 189.71875 227.140625 189.175781 C 226.851562 188.632812 226.535156 188.101562 226.195312 187.589844 C 225.851562 187.078125 225.488281 186.582031 225.097656 186.105469 C 224.707031 185.628906 224.292969 185.171875 223.859375 184.738281 C 223.421875 184.300781 222.964844 183.890625 222.488281 183.5 C 222.011719 183.109375 221.519531 182.742188 221.003906 182.402344 C 220.492188 182.058594 219.964844 181.742188 219.421875 181.453125 C 218.878906 181.164062 218.320312 180.902344 217.75 180.667969 C 217.183594 180.429688 216.601562 180.222656 216.011719 180.046875 C 215.421875 179.867188 214.824219 179.71875 214.222656 179.597656 C 213.617188 179.476562 213.007812 179.386719 212.394531 179.328125 C 211.78125 179.265625 211.167969 179.238281 210.550781 179.238281 C 209.9375 179.238281 209.320312 179.265625 208.707031 179.328125 C 208.09375 179.386719 207.484375 179.476562 206.882812 179.597656 C 206.277344 179.71875 205.679688 179.867188 205.089844 180.046875 C 204.5 180.222656 203.921875 180.429688 203.351562 180.667969 C 202.78125 180.902344 202.226562 181.164062 201.683594 181.453125 C 201.136719 181.742188 200.609375 182.058594 200.097656 182.402344 C 199.585938 182.742188 199.089844 183.109375 198.613281 183.5 C 198.136719 183.890625 197.679688 184.300781 197.242188 184.738281 L 190.589844 191.390625 C 190.371094 191.609375 190.132812 191.804688 189.878906 191.976562 C 189.621094 192.144531 189.351562 192.292969 189.0625 192.410156 C 188.777344 192.527344 188.484375 192.617188 188.183594 192.675781 C 187.878906 192.738281 187.574219 192.765625 187.265625 192.765625 C 186.957031 192.765625 186.648438 192.738281 186.347656 192.675781 C 186.042969 192.617188 185.75 192.527344 185.464844 192.410156 C 185.179688 192.292969 184.90625 192.144531 184.652344 191.976562 C 184.394531 191.804688 184.15625 191.609375 183.9375 191.390625 L 177.285156 184.738281 C 175.519531 182.972656 173.484375 181.613281 171.179688 180.660156 C 168.875 179.707031 166.472656 179.230469 163.980469 179.234375 Z M 163.980469 179.234375 " fill-opacity="1" fill-rule="nonzero"/><g fill="#ffffff" fill-opacity="1"><g transform="translate(96.614355, 335.239341)"><g><path d="M 24.609375 -0.078125 C 23.515625 2.191406 22.191406 3.898438 20.640625 5.046875 C 19.097656 6.203125 17.375 6.757812 15.46875 6.71875 L 17.640625 14.140625 L 12.390625 11.625 L 10.9375 5.59375 L 10.625 5.4375 C 7.675781 4.019531 5.820312 2.070312 5.0625 -0.40625 C 4.300781 -2.882812 4.695312 -5.726562 6.25 -8.9375 C 7.789062 -12.144531 9.757812 -14.210938 12.15625 -15.140625 C 14.5625 -16.078125 17.242188 -15.832031 20.203125 -14.40625 C 23.171875 -12.976562 25.03125 -11.03125 25.78125 -8.5625 C 26.539062 -6.101562 26.148438 -3.273438 24.609375 -0.078125 Z M 10.515625 -6.859375 C 9.484375 -4.710938 9.113281 -2.894531 9.40625 -1.40625 C 9.707031 0.0820312 10.664062 1.21875 12.28125 2 C 15.550781 3.570312 18.226562 2.191406 20.3125 -2.140625 C 22.40625 -6.484375 21.828125 -9.4375 18.578125 -11 C 16.953125 -11.78125 15.460938 -11.820312 14.109375 -11.125 C 12.753906 -10.4375 11.554688 -9.015625 10.515625 -6.859375 Z M 10.515625 -6.859375 "/></g></g></g><g fill="#ffffff" fill-opacity="1"><g transform="translate(119.517496, 346.013189)"><g><path d="M 13.234375 4.421875 L 13.3125 2.25 L 13.09375 2.171875 C 12.394531 2.734375 11.5625 3.070312 10.59375 3.1875 C 9.632812 3.3125 8.625 3.195312 7.5625 2.84375 C 5.738281 2.226562 4.523438 1.28125 3.921875 0 C 3.328125 -1.289062 3.335938 -2.851562 3.953125 -4.6875 L 7.328125 -14.8125 L 11.5625 -13.40625 L 8.53125 -4.34375 C 8.15625 -3.21875 8.070312 -2.304688 8.28125 -1.609375 C 8.5 -0.910156 9.039062 -0.414062 9.90625 -0.125 C 11.09375 0.269531 12.082031 0.160156 12.875 -0.453125 C 13.664062 -1.066406 14.367188 -2.289062 14.984375 -4.125 L 17.421875 -11.4375 L 21.671875 -10.03125 L 16.484375 5.5 Z M 13.234375 4.421875 "/></g></g></g><g fill="#ffffff" fill-opacity="1"><g transform="translate(139.421139, 352.539094)"><g><path d="M 11.796875 -11.25 C 10.867188 -11.445312 10.078125 -11.3125 9.421875 -10.84375 C 8.765625 -10.375 8.285156 -9.601562 7.984375 -8.53125 L 14.109375 -7.203125 C 14.316406 -8.296875 14.210938 -9.191406 13.796875 -9.890625 C 13.390625 -10.585938 12.722656 -11.039062 11.796875 -11.25 Z M 9.46875 2.375 C 6.882812 1.8125 5.023438 0.660156 3.890625 -1.078125 C 2.753906 -2.828125 2.46875 -5.003906 3.03125 -7.609375 C 3.613281 -10.285156 4.734375 -12.210938 6.390625 -13.390625 C 8.054688 -14.566406 10.070312 -14.894531 12.4375 -14.375 C 14.695312 -13.882812 16.316406 -12.851562 17.296875 -11.28125 C 18.273438 -9.71875 18.519531 -7.800781 18.03125 -5.53125 L 17.5625 -3.421875 L 7.234375 -5.671875 C 7.015625 -4.410156 7.171875 -3.359375 7.703125 -2.515625 C 8.242188 -1.671875 9.132812 -1.113281 10.375 -0.84375 C 11.332031 -0.632812 12.265625 -0.535156 13.171875 -0.546875 C 14.078125 -0.554688 15.046875 -0.6875 16.078125 -0.9375 L 15.34375 2.453125 C 14.5 2.660156 13.617188 2.765625 12.703125 2.765625 C 11.796875 2.773438 10.71875 2.644531 9.46875 2.375 Z M 9.46875 2.375 "/></g></g></g><g fill="#ffffff" fill-opacity="1"><g transform="translate(157.769105, 356.393273)"><g><path d="M 13.453125 -15.140625 C 14.054688 -15.066406 14.554688 -14.957031 14.953125 -14.8125 L 14.09375 -10.703125 C 13.738281 -10.847656 13.304688 -10.953125 12.796875 -11.015625 C 11.378906 -11.191406 10.234375 -10.960938 9.359375 -10.328125 C 8.484375 -9.703125 7.960938 -8.734375 7.796875 -7.421875 L 6.765625 0.84375 L 2.328125 0.296875 L 4.359375 -15.953125 L 7.71875 -15.546875 L 8.03125 -12.71875 L 8.25 -12.703125 C 8.863281 -13.554688 9.632812 -14.207031 10.5625 -14.65625 C 11.488281 -15.101562 12.453125 -15.265625 13.453125 -15.140625 Z M 13.453125 -15.140625 "/></g></g></g><g fill="#ffffff" fill-opacity="1"><g transform="translate(172.332525, 358.274515)"><g><path d="M 6.15625 -8.03125 C 6.101562 -6.40625 6.332031 -5.171875 6.84375 -4.328125 C 7.351562 -3.484375 8.207031 -3.046875 9.40625 -3.015625 C 10.601562 -2.972656 11.472656 -3.351562 12.015625 -4.15625 C 12.554688 -4.96875 12.851562 -6.191406 12.90625 -7.828125 C 12.957031 -9.453125 12.734375 -10.675781 12.234375 -11.5 C 11.734375 -12.320312 10.878906 -12.753906 9.671875 -12.796875 C 8.484375 -12.828125 7.613281 -12.445312 7.0625 -11.65625 C 6.507812 -10.875 6.207031 -9.664062 6.15625 -8.03125 Z M 17.46875 -7.6875 C 17.382812 -5.019531 16.617188 -2.953125 15.171875 -1.484375 C 13.722656 -0.0234375 11.742188 0.660156 9.234375 0.578125 C 7.660156 0.535156 6.285156 0.15625 5.109375 -0.5625 C 3.929688 -1.289062 3.035156 -2.3125 2.421875 -3.625 C 1.816406 -4.9375 1.539062 -6.453125 1.59375 -8.171875 C 1.675781 -10.847656 2.4375 -12.90625 3.875 -14.34375 C 5.320312 -15.78125 7.3125 -16.457031 9.84375 -16.375 C 11.414062 -16.332031 12.789062 -15.953125 13.96875 -15.234375 C 15.15625 -14.523438 16.046875 -13.519531 16.640625 -12.21875 C 17.242188 -10.914062 17.519531 -9.40625 17.46875 -7.6875 Z M 17.46875 -7.6875 "/></g></g></g><g fill="#ffffff" fill-opacity="1"><g transform="translate(191.758921, 358.639067)"><g/></g></g><g fill="#ffffff" fill-opacity="1"><g transform="translate(200.435183, 358.429724)"><g><path d="M 7.5 -0.625 C 5.59375 -0.382812 4 -0.941406 2.71875 -2.296875 C 1.445312 -3.648438 0.648438 -5.640625 0.328125 -8.265625 C 0.00390625 -10.929688 0.304688 -13.078125 1.234375 -14.703125 C 2.171875 -16.328125 3.609375 -17.257812 5.546875 -17.5 C 7.597656 -17.75 9.253906 -17.144531 10.515625 -15.6875 L 10.671875 -15.703125 C 10.296875 -16.878906 10.050781 -17.945312 9.9375 -18.90625 L 9.296875 -24.109375 L 13.75 -24.65625 L 16.53125 -2.03125 L 13.140625 -1.609375 L 12 -3.625 L 11.8125 -3.59375 C 11.007812 -1.863281 9.570312 -0.875 7.5 -0.625 Z M 8.625 -4.34375 C 9.757812 -4.488281 10.550781 -4.921875 11 -5.640625 C 11.445312 -6.367188 11.597656 -7.523438 11.453125 -9.109375 L 11.390625 -9.59375 C 11.179688 -11.34375 10.757812 -12.5625 10.125 -13.25 C 9.5 -13.9375 8.582031 -14.207031 7.375 -14.0625 C 6.375 -13.9375 5.648438 -13.421875 5.203125 -12.515625 C 4.765625 -11.609375 4.644531 -10.351562 4.84375 -8.75 C 5.039062 -7.15625 5.460938 -5.988281 6.109375 -5.25 C 6.753906 -4.519531 7.59375 -4.21875 8.625 -4.34375 Z M 8.625 -4.34375 "/></g></g></g><g fill="#ffffff" fill-opacity="1"><g transform="translate(220.49393, 355.882631)"><g><path d="M 3.875 -9.34375 C 4.238281 -7.757812 4.773438 -6.625 5.484375 -5.9375 C 6.191406 -5.257812 7.128906 -5.054688 8.296875 -5.328125 C 9.460938 -5.597656 10.207031 -6.191406 10.53125 -7.109375 C 10.851562 -8.035156 10.828125 -9.296875 10.453125 -10.890625 C 10.078125 -12.472656 9.535156 -13.597656 8.828125 -14.265625 C 8.128906 -14.929688 7.191406 -15.128906 6.015625 -14.859375 C 4.859375 -14.585938 4.117188 -14 3.796875 -13.09375 C 3.472656 -12.1875 3.5 -10.9375 3.875 -9.34375 Z M 14.90625 -11.9375 C 15.507812 -9.34375 15.296875 -7.15625 14.265625 -5.375 C 13.242188 -3.59375 11.507812 -2.410156 9.0625 -1.828125 C 7.53125 -1.472656 6.097656 -1.488281 4.765625 -1.875 C 3.441406 -2.269531 2.316406 -3.019531 1.390625 -4.125 C 0.472656 -5.238281 -0.175781 -6.632812 -0.5625 -8.3125 C -1.175781 -10.914062 -0.972656 -13.097656 0.046875 -14.859375 C 1.066406 -16.628906 2.804688 -17.804688 5.265625 -18.390625 C 6.796875 -18.742188 8.222656 -18.722656 9.546875 -18.328125 C 10.878906 -17.941406 12.003906 -17.195312 12.921875 -16.09375 C 13.847656 -15 14.507812 -13.613281 14.90625 -11.9375 Z M 14.90625 -11.9375 "/></g></g></g><g fill="#ffffff" fill-opacity="1"><g transform="translate(239.732305, 351.28385)"><g><path d="M 12.03125 -4.21875 L 10.46875 -6.03125 L 10.375 -6 C 9.976562 -4.851562 9.460938 -3.972656 8.828125 -3.359375 C 8.191406 -2.742188 7.269531 -2.226562 6.0625 -1.8125 C 4.582031 -1.289062 3.265625 -1.304688 2.109375 -1.859375 C 0.960938 -2.410156 0.117188 -3.46875 -0.421875 -5.03125 C -1.003906 -6.675781 -0.859375 -8.085938 0.015625 -9.265625 C 0.890625 -10.441406 2.46875 -11.476562 4.75 -12.375 L 7.40625 -13.40625 L 7.171875 -14.078125 C 6.617188 -15.648438 5.539062 -16.15625 3.9375 -15.59375 C 2.707031 -15.15625 1.394531 -14.269531 0 -12.9375 L -2.40625 -15.296875 C -0.957031 -16.859375 0.84375 -18.015625 3 -18.765625 C 5.082031 -19.492188 6.832031 -19.597656 8.25 -19.078125 C 9.675781 -18.554688 10.710938 -17.375 11.359375 -15.53125 L 14.96875 -5.234375 Z M 8.265625 -10.953125 L 6.671875 -10.3125 C 5.453125 -9.84375 4.613281 -9.300781 4.15625 -8.6875 C 3.695312 -8.082031 3.613281 -7.363281 3.90625 -6.53125 C 4.320312 -5.332031 5.210938 -4.972656 6.578125 -5.453125 C 7.554688 -5.785156 8.238281 -6.335938 8.625 -7.109375 C 9.007812 -7.890625 9.039062 -8.742188 8.71875 -9.671875 Z M 8.265625 -10.953125 "/></g></g></g><g fill="#ffffff" fill-opacity="1"><g transform="translate(257.762291, 344.810656)"><g><path d="M 3.515625 -19.9375 C 4.054688 -20.1875 4.535156 -20.359375 4.953125 -20.453125 L 6.375 -16.5 C 6 -16.445312 5.578125 -16.316406 5.109375 -16.109375 C 3.816406 -15.515625 2.960938 -14.710938 2.546875 -13.703125 C 2.128906 -12.703125 2.195312 -11.601562 2.75 -10.40625 L 6.203125 -2.828125 L 2.125 -0.96875 L -4.671875 -15.859375 L -1.578125 -17.265625 L 0.15625 -15.046875 L 0.359375 -15.140625 C 0.429688 -16.179688 0.742188 -17.132812 1.296875 -18 C 1.847656 -18.875 2.585938 -19.519531 3.515625 -19.9375 Z M 3.515625 -19.9375 "/></g></g></g><g fill="#ffffff" fill-opacity="1"><g transform="translate(270.767509, 338.756298)"><g><path d="M 2.015625 -9.140625 L -1.140625 -7.453125 L -8.5625 -19.703125 L -4.09375 -22.109375 Z M 0.53125 -2.65625 C 0.132812 -3.382812 0.03125 -4.035156 0.21875 -4.609375 C 0.40625 -5.179688 0.867188 -5.664062 1.609375 -6.0625 C 2.328125 -6.445312 2.984375 -6.554688 3.578125 -6.390625 C 4.171875 -6.222656 4.660156 -5.785156 5.046875 -5.078125 C 5.410156 -4.398438 5.5 -3.757812 5.3125 -3.15625 C 5.125 -2.550781 4.675781 -2.0625 3.96875 -1.6875 C 3.25 -1.300781 2.585938 -1.191406 1.984375 -1.359375 C 1.390625 -1.523438 0.90625 -1.957031 0.53125 -2.65625 Z M 0.53125 -2.65625 "/></g></g></g></svg>