<svg xmlns="http://www.w3.org/2000/svg" xmlns:xlink="http://www.w3.org/1999/xlink" width="500" zoomAndPan="magnify" viewBox="0 0 375 374.999991" height="500" preserveAspectRatio="xMidYMid meet" version="1.0"><defs><filter x="0%" y="0%" width="100%" height="100%" id="7a17c38661"><feColorMatrix values="0 0 0 0 1 0 0 0 0 1 0 0 0 0 1 0 0 0 1 0" color-interpolation-filters="sRGB"/></filter><g/><mask id="f24dc287a6"><g filter="url(#7a17c38661)"><rect x="-37.5" width="450" fill="#000000" y="-37.499999" height="449.999989" fill-opacity="0.7"/></g></mask><clipPath id="ca26fec2de"><path d="M 0 0 L 375 0 L 375 375 L 0 375 Z M 0 0 " clip-rule="nonzero"/></clipPath><clipPath id="06c5580377"><path d="M 187.5 0 C 83.945312 0 0 83.945312 0 187.5 C 0 291.054688 83.945312 375 187.5 375 C 291.054688 375 375 291.054688 375 187.5 C 375 83.945312 291.054688 0 187.5 0 Z M 187.5 0 " clip-rule="nonzero"/></clipPath><clipPath id="4571ed7442"><rect x="0" width="375" y="0" height="375"/></clipPath><clipPath id="c56debd3fd"><path d="M 109 77.417969 L 266 77.417969 L 266 325.667969 L 109 325.667969 Z M 109 77.417969 " clip-rule="nonzero"/></clipPath><clipPath id="f5995dd69a"><path d="M 174 278 L 200 278 L 200 325.667969 L 174 325.667969 Z M 174 278 " clip-rule="nonzero"/></clipPath></defs><g mask="url(#f24dc287a6)"><g transform="matrix(1, 0, 0, 1, 0, 0)"><g clip-path="url(#4571ed7442)"><g clip-path="url(#ca26fec2de)"><g clip-path="url(#06c5580377)"><rect x="-82.5" width="540" fill="#379ab4" height="539.999987" y="-82.499998" fill-opacity="1"/></g></g></g></g></g><path fill="#ffffff" d="M 82.679688 184.753906 L 82.679688 205.289062 C 82.679688 207.421875 84.421875 209.164062 86.554688 209.164062 C 88.6875 209.164062 90.429688 207.421875 90.429688 205.289062 L 90.429688 184.753906 C 90.429688 182.621094 89.65625 179.519531 88.492188 177.582031 L 71.828125 149.296875 C 71.054688 147.941406 70.859375 146.972656 71.636719 144.839844 C 73.1875 141.742188 89.074219 110.546875 92.367188 101.828125 C 92.753906 101.054688 93.722656 100.472656 94.5 100.664062 C 95.660156 101.054688 98.761719 101.246094 98.179688 102.992188 C 96.628906 107.445312 91.785156 118.101562 87.523438 127.597656 C 79 146.390625 79 146.390625 80.355469 148.523438 C 80.355469 148.523438 90.625 164.410156 90.625 164.410156 C 91.785156 166.152344 94.109375 166.734375 96.046875 165.570312 C 97.792969 164.410156 98.375 162.085938 97.210938 160.148438 L 87.910156 146.003906 C 89.074219 143.097656 103.992188 110.160156 105.542969 105.316406 C 107.09375 100.664062 104.574219 95.433594 99.730469 94.078125 L 96.628906 93.109375 C 91.980469 91.753906 86.941406 94.273438 85.199219 98.921875 C 81.90625 107.640625 64.855469 141.160156 64.855469 141.546875 C 62.917969 145.226562 63.304688 149.683594 65.242188 153.171875 L 81.710938 181.457031 C 82.097656 182.234375 82.679688 183.785156 82.679688 184.753906 Z M 82.679688 184.753906 " fill-opacity="1" fill-rule="nonzero"/><path fill="#ffffff" d="M 310.527344 141.933594 C 310.527344 141.742188 293.089844 107.640625 289.796875 99.117188 C 288.050781 94.464844 283.015625 91.945312 278.367188 93.304688 C 278.367188 93.304688 275.265625 94.273438 275.265625 94.273438 C 270.421875 95.628906 267.902344 100.859375 269.453125 105.507812 C 271.003906 110.351562 285.921875 143.289062 287.082031 146.195312 L 277.785156 160.339844 C 276.621094 162.085938 277.203125 164.601562 278.945312 165.765625 C 280.691406 166.925781 283.210938 166.347656 284.371094 164.601562 C 284.371094 164.601562 294.640625 148.714844 294.640625 148.714844 C 295.996094 146.585938 295.996094 146.585938 287.472656 127.789062 C 283.210938 118.296875 278.367188 107.640625 276.816406 103.183594 C 276.234375 101.441406 279.527344 101.246094 280.496094 100.859375 C 281.273438 100.664062 282.242188 101.054688 282.628906 102.023438 C 285.921875 110.742188 301.808594 142.128906 303.359375 145.035156 C 304.132812 147.164062 303.941406 148.132812 303.164062 149.492188 L 286.695312 177.777344 C 285.535156 179.714844 284.757812 182.621094 284.757812 184.945312 L 284.757812 205.289062 C 284.757812 207.421875 286.503906 209.164062 288.632812 209.164062 C 290.765625 209.164062 292.507812 207.421875 292.507812 205.289062 L 292.507812 184.753906 C 292.507812 183.976562 292.894531 182.234375 293.285156 181.652344 L 309.753906 153.367188 C 311.691406 149.878906 312.078125 145.421875 310.527344 141.933594 Z M 310.527344 141.933594 " fill-opacity="1" fill-rule="nonzero"/><path fill="#ffffff" d="M 106.703125 275.8125 L 99.34375 274.652344 L 96.046875 267.675781 C 95.46875 266.320312 94.109375 265.351562 92.5625 265.351562 C 91.011719 265.351562 89.65625 266.125 89.074219 267.675781 L 85.78125 274.652344 L 78.417969 275.8125 C 77.0625 276.007812 75.703125 276.976562 75.316406 278.332031 C 74.929688 279.6875 75.125 281.238281 76.285156 282.207031 L 81.710938 287.828125 L 80.355469 295.769531 C 80.160156 297.320312 80.742188 298.675781 81.90625 299.644531 C 83.066406 300.421875 84.8125 300.613281 85.972656 299.839844 L 92.5625 296.15625 L 99.148438 299.839844 C 100.503906 300.613281 102.054688 300.421875 103.21875 299.644531 C 104.378906 298.871094 104.960938 297.320312 104.765625 295.769531 L 103.410156 287.828125 L 108.835938 282.207031 C 109.804688 281.238281 110.191406 279.6875 109.804688 278.332031 C 109.417969 276.976562 108.0625 276.007812 106.703125 275.8125 Z M 96.628906 283.757812 C 95.855469 284.726562 95.46875 285.890625 95.660156 287.050781 L 96.046875 288.988281 L 94.691406 288.214844 C 94.109375 287.828125 93.53125 287.632812 92.753906 287.632812 C 91.980469 287.632812 91.398438 287.828125 90.816406 288.214844 L 89.460938 288.988281 L 89.847656 287.050781 C 90.042969 285.890625 89.65625 284.53125 88.878906 283.757812 L 87.328125 282.207031 L 89.265625 281.820312 C 90.625 281.625 91.59375 280.851562 92.171875 279.6875 L 92.949219 278.140625 L 93.722656 279.6875 C 94.304688 280.851562 95.273438 281.625 96.628906 281.820312 L 98.566406 282.207031 Z M 96.628906 283.757812 " fill-opacity="1" fill-rule="nonzero"/><path fill="#ffffff" d="M 296.578125 275.8125 L 289.214844 274.652344 L 285.921875 267.675781 C 285.339844 266.320312 283.984375 265.351562 282.433594 265.351562 C 280.882812 265.351562 279.527344 266.125 278.945312 267.675781 L 275.652344 274.652344 L 268.289062 275.8125 C 266.933594 276.007812 265.578125 276.976562 265.191406 278.332031 C 264.804688 279.6875 264.996094 281.238281 266.160156 282.207031 L 271.585938 287.828125 L 270.226562 295.769531 C 270.035156 297.320312 270.617188 298.675781 271.777344 299.644531 C 272.941406 300.421875 274.492188 300.613281 275.847656 299.839844 L 282.433594 296.15625 L 289.019531 299.839844 C 290.378906 300.613281 291.925781 300.421875 293.089844 299.644531 C 294.253906 298.871094 294.832031 297.320312 294.640625 295.769531 L 293.285156 287.828125 L 298.707031 282.207031 C 299.675781 281.238281 300.066406 279.6875 299.675781 278.332031 C 299.289062 276.976562 297.933594 276.007812 296.578125 275.8125 Z M 286.503906 283.757812 C 285.726562 284.726562 285.339844 285.890625 285.535156 287.050781 L 285.921875 288.988281 L 284.566406 288.214844 C 283.984375 287.828125 283.402344 287.632812 282.628906 287.632812 C 282.046875 287.632812 281.273438 287.828125 280.691406 288.214844 L 279.335938 288.988281 L 279.722656 287.050781 C 279.914062 285.890625 279.527344 284.53125 278.753906 283.757812 L 277.203125 282.207031 L 279.140625 281.820312 C 280.496094 281.625 281.464844 280.851562 282.046875 279.6875 L 282.820312 278.140625 L 283.597656 279.6875 C 284.179688 280.851562 285.148438 281.625 286.503906 281.820312 L 288.441406 282.207031 Z M 286.503906 283.757812 " fill-opacity="1" fill-rule="nonzero"/><path fill="#ffffff" d="M 102.25 146.972656 C 102.25 159.953125 111.160156 170.414062 122.011719 170.414062 L 123.367188 170.414062 C 134.023438 170.414062 142.933594 159.953125 142.933594 146.972656 L 142.933594 139.414062 C 142.933594 126.628906 134.023438 116.164062 123.171875 116.164062 L 121.816406 116.164062 C 111.160156 116.164062 102.25 126.628906 102.25 139.609375 Z M 102.25 146.972656 " fill-opacity="1" fill-rule="nonzero"/><path fill="#ffffff" d="M 232.058594 146.972656 C 232.058594 159.953125 240.972656 170.414062 251.820312 170.414062 L 253.179688 170.414062 C 264.027344 170.414062 272.941406 159.953125 272.941406 146.972656 L 272.941406 139.414062 C 272.941406 126.433594 264.027344 115.972656 253.179688 115.972656 L 251.820312 115.972656 C 240.972656 116.164062 232.058594 126.628906 232.058594 139.609375 Z M 232.058594 146.972656 " fill-opacity="1" fill-rule="nonzero"/><path fill="#ffffff" d="M 191.371094 182.039062 C 191.371094 182.554688 191.273438 183.046875 191.078125 183.523438 C 190.878906 183.996094 190.601562 184.417969 190.238281 184.78125 C 189.875 185.144531 189.453125 185.421875 188.980469 185.621094 C 188.503906 185.816406 188.011719 185.914062 187.496094 185.914062 C 186.984375 185.914062 186.488281 185.816406 186.015625 185.621094 C 185.539062 185.421875 185.121094 185.144531 184.757812 184.78125 C 184.394531 184.417969 184.113281 183.996094 183.917969 183.523438 C 183.722656 183.046875 183.621094 182.554688 183.621094 182.039062 C 183.621094 181.527344 183.722656 181.03125 183.917969 180.558594 C 184.113281 180.082031 184.394531 179.664062 184.757812 179.300781 C 185.121094 178.9375 185.539062 178.65625 186.015625 178.460938 C 186.488281 178.261719 186.984375 178.164062 187.496094 178.164062 C 188.011719 178.164062 188.503906 178.261719 188.980469 178.460938 C 189.453125 178.65625 189.875 178.9375 190.238281 179.300781 C 190.601562 179.664062 190.878906 180.082031 191.078125 180.558594 C 191.273438 181.03125 191.371094 181.527344 191.371094 182.039062 Z M 191.371094 182.039062 " fill-opacity="1" fill-rule="nonzero"/><g clip-path="url(#c56debd3fd)"><path fill="#ffffff" d="M 263.445312 233.578125 C 263.445312 233.578125 241.746094 186.496094 237.097656 174.289062 C 234.964844 168.671875 228.570312 165.378906 222.757812 167.121094 L 218.496094 168.285156 C 215.589844 169.058594 213.265625 170.996094 211.910156 173.515625 C 211.714844 173.902344 211.523438 174.097656 211.523438 174.484375 L 211.523438 167.121094 C 211.523438 162.859375 208.035156 159.371094 203.773438 159.371094 L 199.121094 159.371094 L 199.121094 143.484375 C 203.773438 140.578125 208.035156 136.316406 211.328125 130.695312 L 217.527344 127.402344 C 239.035156 115.003906 235.933594 93.304688 235.742188 92.335938 C 235.351562 90.398438 233.804688 89.039062 231.867188 89.039062 L 220.242188 89.039062 C 220.046875 86.328125 219.851562 83.421875 219.464844 80.710938 C 219.273438 78.773438 217.527344 77.417969 215.589844 77.417969 L 159.402344 77.417969 C 157.464844 77.417969 155.917969 78.773438 155.527344 80.710938 C 155.140625 83.421875 154.753906 86.328125 154.753906 89.039062 L 143.128906 89.039062 C 141.191406 89.039062 139.640625 90.398438 139.253906 92.335938 C 139.058594 93.304688 135.960938 115.003906 157.660156 127.789062 L 163.667969 130.890625 C 166.960938 136.507812 171.027344 140.773438 175.871094 143.679688 L 175.871094 159.566406 L 171.222656 159.566406 C 166.960938 159.566406 163.472656 163.054688 163.472656 167.316406 L 163.472656 170.027344 C 162.503906 169.253906 161.339844 168.671875 160.179688 168.476562 L 155.722656 167.121094 C 149.714844 165.378906 143.515625 168.671875 141.191406 174.289062 C 136.347656 186.691406 111.355469 235.707031 111.355469 235.902344 C 109.804688 240.164062 108.640625 244.816406 112.128906 250.625 L 135.960938 291.3125 C 136.734375 292.671875 137.511719 295.1875 137.511719 296.738281 L 137.511719 321.539062 C 137.511719 323.671875 139.253906 325.414062 141.386719 325.414062 C 143.515625 325.414062 145.261719 323.671875 145.261719 321.539062 L 145.261719 296.738281 C 145.261719 293.832031 144.097656 289.957031 142.742188 287.4375 L 118.910156 246.75 C 117.359375 244.234375 117.359375 242.296875 118.71875 238.808594 C 120.65625 235.128906 143.902344 189.597656 148.554688 177.003906 C 149.328125 175.066406 151.652344 173.902344 153.589844 174.484375 C 153.589844 174.484375 158.046875 175.839844 158.046875 175.839844 C 159.792969 176.421875 160.761719 178.359375 160.179688 180.101562 C 158.046875 186.496094 151.074219 201.996094 144.871094 215.558594 C 132.859375 241.910156 132.859375 241.910156 134.410156 244.425781 L 149.136719 267.09375 C 150.296875 268.839844 152.621094 269.421875 154.558594 268.257812 C 156.304688 267.09375 156.886719 264.769531 155.722656 262.832031 L 141.964844 241.714844 C 143.324219 238.035156 157.078125 207.808594 159.597656 202.382812 L 172.773438 202.382812 C 165.410156 208.003906 160.566406 217.882812 160.566406 228.925781 L 160.566406 239.582031 C 160.566406 257.019531 172.386719 271.164062 186.722656 271.164062 L 188.660156 271.164062 C 203.191406 271.164062 214.816406 257.019531 214.816406 239.582031 L 214.816406 228.925781 C 214.816406 217.691406 209.972656 208.003906 202.609375 202.382812 L 216.558594 202.382812 C 217.335938 202.382812 218.109375 202.191406 218.691406 201.609375 C 220.242188 205.484375 232.445312 235.128906 233.804688 239.195312 L 220.242188 260.121094 C 219.078125 261.863281 219.660156 264.382812 221.402344 265.546875 C 223.148438 266.707031 225.664062 266.125 226.828125 264.382812 C 226.828125 264.382812 241.359375 242.101562 241.359375 242.101562 C 242.714844 239.777344 242.714844 239.777344 230.898438 210.714844 C 225.859375 198.507812 220.628906 185.914062 218.882812 180.101562 C 218.304688 178.359375 219.078125 176.613281 220.820312 176.035156 L 225.085938 174.675781 C 227.023438 174.097656 229.152344 175.257812 229.929688 177.195312 C 234.578125 189.402344 254.921875 233.382812 256.472656 236.675781 C 257.828125 240.164062 257.632812 241.910156 256.277344 244.425781 L 233.027344 284.339844 C 231.671875 286.859375 230.507812 290.734375 230.507812 293.445312 L 230.507812 321.539062 C 230.507812 323.671875 232.253906 325.414062 234.382812 325.414062 C 236.515625 325.414062 238.257812 323.671875 238.257812 321.539062 L 238.257812 293.25 C 238.257812 291.703125 239.035156 289.183594 239.617188 288.019531 L 262.867188 248.109375 C 266.160156 242.296875 265.191406 237.644531 263.445312 233.578125 Z M 220.433594 96.789062 L 228.183594 96.789062 C 227.992188 101.828125 226.441406 111.710938 216.558594 118.878906 C 218.691406 112.289062 220.046875 104.734375 220.433594 96.789062 Z M 146.808594 96.789062 L 154.558594 96.789062 C 154.753906 104.734375 156.109375 112.289062 158.242188 118.878906 C 148.554688 111.515625 147.003906 101.828125 146.808594 96.789062 Z M 212.683594 194.441406 L 162.699219 194.441406 C 164.636719 189.789062 166.378906 185.722656 167.347656 183.007812 C 169.480469 183.007812 171.222656 181.265625 171.222656 179.132812 L 171.222656 167.316406 L 203.773438 167.316406 L 203.773438 179.132812 C 203.773438 181.265625 205.515625 183.007812 207.648438 183.007812 L 211.523438 183.007812 C 211.910156 183.976562 212.296875 184.945312 212.683594 186.109375 Z M 212.683594 194.441406 " fill-opacity="1" fill-rule="nonzero"/></g><g clip-path="url(#f5995dd69a)"><path fill="#ffffff" d="M 192.148438 278.332031 C 190.984375 278.527344 189.628906 278.527344 188.273438 278.527344 L 186.335938 278.527344 C 184.980469 278.527344 183.816406 278.332031 182.460938 278.332031 L 174.710938 311.65625 C 174.515625 312.625 175.097656 313.789062 176.066406 314.371094 L 186.722656 325.21875 C 186.722656 325.21875 187.496094 325.609375 187.886719 325.21875 L 198.542969 314.371094 C 199.511719 313.789062 200.089844 312.625 199.703125 311.65625 Z M 192.148438 278.332031 " fill-opacity="1" fill-rule="nonzero"/></g><path fill="#ffffff" d="M 122.011719 178.164062 C 120.65625 178.164062 119.105469 177.972656 117.75 177.777344 L 111.9375 200.445312 C 111.742188 201.222656 112.128906 202.191406 113.097656 202.578125 L 117.554688 206.644531 C 122.203125 197.152344 126.078125 189.207031 128.984375 183.203125 L 127.433594 177.777344 C 126.078125 177.972656 124.722656 178.164062 123.171875 178.164062 Z M 122.011719 178.164062 " fill-opacity="1" fill-rule="nonzero"/><path fill="#ffffff" d="M 252.984375 178.164062 L 251.628906 178.164062 C 250.273438 178.164062 248.722656 177.972656 247.367188 177.777344 L 247.171875 178.550781 C 250.273438 185.722656 254.726562 195.601562 258.992188 205.289062 L 261.898438 202.578125 C 262.671875 202.191406 263.058594 201.222656 262.867188 200.445312 L 257.246094 177.777344 C 255.890625 177.972656 254.535156 178.164062 252.984375 178.164062 Z M 252.984375 178.164062 " fill-opacity="1" fill-rule="nonzero"/><g fill="#ffffff" fill-opacity="1"><g transform="translate(89.860868, 65.442876)"><g><path d="M 0.578125 -26.078125 L 4.40625 -28.625 L 10.1875 -6.75 L 6.046875 -4.015625 L -11.84375 -17.84375 L -8.03125 -20.375 L 2.375 -11.984375 C 2.976562 -11.484375 3.65625 -10.878906 4.40625 -10.171875 C 5.164062 -9.472656 5.675781 -8.976562 5.9375 -8.6875 C 5.539062 -9.488281 4.976562 -11 4.25 -13.21875 Z M 0.578125 -26.078125 "/></g></g></g><g fill="#ffffff" fill-opacity="1"><g transform="translate(105.105592, 55.309278)"><g><path d="M 1.875 -16.1875 C 1.039062 -15.75 0.519531 -15.140625 0.3125 -14.359375 C 0.113281 -13.585938 0.238281 -12.691406 0.6875 -11.671875 L 6.25 -14.5625 C 5.71875 -15.53125 5.066406 -16.148438 4.296875 -16.421875 C 3.523438 -16.703125 2.71875 -16.625 1.875 -16.1875 Z M 8.796875 -4.21875 C 6.453125 -3.007812 4.285156 -2.710938 2.296875 -3.328125 C 0.304688 -3.941406 -1.300781 -5.429688 -2.53125 -7.796875 C -3.789062 -10.222656 -4.15625 -12.414062 -3.625 -14.375 C -3.09375 -16.34375 -1.753906 -17.882812 0.390625 -19 C 2.441406 -20.0625 4.34375 -20.304688 6.09375 -19.734375 C 7.851562 -19.160156 9.269531 -17.84375 10.34375 -15.78125 L 11.328125 -13.84375 L 1.953125 -8.984375 C 2.585938 -7.878906 3.378906 -7.171875 4.328125 -6.859375 C 5.285156 -6.554688 6.328125 -6.695312 7.453125 -7.28125 C 8.328125 -7.726562 9.109375 -8.242188 9.796875 -8.828125 C 10.484375 -9.421875 11.148438 -10.140625 11.796875 -10.984375 L 13.390625 -7.90625 C 12.867188 -7.207031 12.253906 -6.566406 11.546875 -5.984375 C 10.847656 -5.398438 9.929688 -4.8125 8.796875 -4.21875 Z M 8.796875 -4.21875 "/></g></g></g><g fill="#ffffff" fill-opacity="1"><g transform="translate(119.310582, 47.379871)"><g><path d="M 16.015625 -5.703125 L 11.8125 -4.203125 L 8.609375 -13.21875 C 8.203125 -14.332031 7.71875 -15.097656 7.15625 -15.515625 C 6.59375 -15.941406 5.910156 -16.007812 5.109375 -15.71875 C 4.023438 -15.332031 3.378906 -14.660156 3.171875 -13.703125 C 2.972656 -12.742188 3.195312 -11.351562 3.84375 -9.53125 L 6.421875 -2.28125 L 2.203125 -0.78125 L -3.296875 -16.203125 L -0.078125 -17.34375 L 1.1875 -15.59375 L 1.421875 -15.671875 C 1.585938 -16.523438 1.988281 -17.289062 2.625 -17.96875 C 3.269531 -18.644531 4.101562 -19.164062 5.125 -19.53125 C 7.425781 -20.351562 9.25 -20.15625 10.59375 -18.9375 L 10.984375 -19.078125 C 11.140625 -19.941406 11.550781 -20.710938 12.21875 -21.390625 C 12.882812 -22.078125 13.722656 -22.597656 14.734375 -22.953125 C 16.484375 -23.578125 17.960938 -23.597656 19.171875 -23.015625 C 20.390625 -22.441406 21.351562 -21.160156 22.0625 -19.171875 L 25.640625 -9.125 L 21.421875 -7.625 L 18.21875 -16.640625 C 17.8125 -17.753906 17.320312 -18.519531 16.75 -18.9375 C 16.1875 -19.363281 15.507812 -19.429688 14.71875 -19.140625 C 13.6875 -18.773438 13.039062 -18.132812 12.78125 -17.21875 C 12.53125 -16.300781 12.691406 -15.046875 13.265625 -13.453125 Z M 16.015625 -5.703125 "/></g></g></g><g fill="#ffffff" fill-opacity="1"><g transform="translate(146.084782, 38.39414)"><g/></g></g><g fill="#ffffff" fill-opacity="1"><g transform="translate(152.922629, 36.616146)"><g><path d="M 12.75 -7.109375 C 13.03125 -5.453125 12.671875 -4.085938 11.671875 -3.015625 C 10.671875 -1.953125 9.023438 -1.226562 6.734375 -0.84375 C 5.554688 -0.644531 4.539062 -0.554688 3.6875 -0.578125 C 2.832031 -0.597656 2.019531 -0.695312 1.25 -0.875 L 0.625 -4.515625 C 1.507812 -4.273438 2.488281 -4.109375 3.5625 -4.015625 C 4.632812 -3.929688 5.554688 -3.957031 6.328125 -4.09375 C 7.921875 -4.363281 8.640625 -4.960938 8.484375 -5.890625 C 8.421875 -6.242188 8.265625 -6.507812 8.015625 -6.6875 C 7.773438 -6.863281 7.367188 -7.046875 6.796875 -7.234375 C 6.234375 -7.421875 5.488281 -7.625 4.5625 -7.84375 C 3.226562 -8.144531 2.234375 -8.46875 1.578125 -8.8125 C 0.921875 -9.15625 0.410156 -9.585938 0.046875 -10.109375 C -0.316406 -10.640625 -0.566406 -11.320312 -0.703125 -12.15625 C -0.953125 -13.59375 -0.585938 -14.800781 0.390625 -15.78125 C 1.367188 -16.757812 2.878906 -17.421875 4.921875 -17.765625 C 6.859375 -18.097656 8.820312 -17.992188 10.8125 -17.453125 L 10.03125 -14.0625 C 9.15625 -14.269531 8.347656 -14.425781 7.609375 -14.53125 C 6.867188 -14.632812 6.132812 -14.625 5.40625 -14.5 C 4.101562 -14.269531 3.507812 -13.804688 3.625 -13.109375 C 3.695312 -12.703125 3.96875 -12.390625 4.4375 -12.171875 C 4.90625 -11.960938 5.898438 -11.695312 7.421875 -11.375 C 8.765625 -11.082031 9.765625 -10.765625 10.421875 -10.421875 C 11.085938 -10.078125 11.609375 -9.632812 11.984375 -9.09375 C 12.359375 -8.5625 12.613281 -7.898438 12.75 -7.109375 Z M 12.75 -7.109375 "/></g></g></g><g fill="#ffffff" fill-opacity="1"><g transform="translate(166.574399, 34.169333)"><g><path d="M 8.078125 -14.15625 C 7.140625 -14.082031 6.425781 -13.722656 5.9375 -13.078125 C 5.445312 -12.441406 5.207031 -11.570312 5.21875 -10.46875 L 11.46875 -10.9375 C 11.363281 -12.03125 11.007812 -12.851562 10.40625 -13.40625 C 9.800781 -13.96875 9.023438 -14.21875 8.078125 -14.15625 Z M 9.734375 -0.4375 C 7.109375 -0.238281 5.003906 -0.804688 3.421875 -2.140625 C 1.835938 -3.484375 0.941406 -5.488281 0.734375 -8.15625 C 0.535156 -10.882812 1.0625 -13.046875 2.3125 -14.640625 C 3.570312 -16.242188 5.40625 -17.132812 7.8125 -17.3125 C 10.125 -17.488281 11.972656 -16.96875 13.359375 -15.75 C 14.742188 -14.539062 15.523438 -12.773438 15.703125 -10.453125 L 15.859375 -8.296875 L 5.328125 -7.5 C 5.472656 -6.226562 5.925781 -5.265625 6.6875 -4.609375 C 7.445312 -3.953125 8.457031 -3.671875 9.71875 -3.765625 C 10.695312 -3.835938 11.613281 -4.003906 12.46875 -4.265625 C 13.332031 -4.535156 14.222656 -4.9375 15.140625 -5.46875 L 15.40625 -2.015625 C 14.65625 -1.578125 13.84375 -1.226562 12.96875 -0.96875 C 12.09375 -0.707031 11.015625 -0.53125 9.734375 -0.4375 Z M 9.734375 -0.4375 "/></g></g></g><g fill="#ffffff" fill-opacity="1"><g transform="translate(183.245488, 32.967433)"><g><path d="M 11.75 -16.5 C 12.351562 -16.5 12.859375 -16.445312 13.265625 -16.34375 L 12.84375 -12.15625 C 12.488281 -12.269531 12.054688 -12.332031 11.546875 -12.34375 C 10.117188 -12.363281 9 -12.007812 8.1875 -11.28125 C 7.375 -10.5625 6.957031 -9.539062 6.9375 -8.21875 L 6.8125 0.109375 L 2.34375 0.03125 L 2.59375 -16.34375 L 5.984375 -16.28125 L 6.609375 -13.53125 L 6.828125 -13.515625 C 7.347656 -14.429688 8.046875 -15.160156 8.921875 -15.703125 C 9.796875 -16.253906 10.738281 -16.519531 11.75 -16.5 Z M 11.75 -16.5 "/></g></g></g><g fill="#ffffff" fill-opacity="1"><g transform="translate(196.171327, 33.239535)"><g/></g></g><g fill="#ffffff" fill-opacity="1"><g transform="translate(203.133156, 33.555034)"><g><path d="M 12.609375 1.9375 L 12.078125 -0.40625 L 11.96875 -0.421875 C 11.082031 0.398438 10.21875 0.929688 9.375 1.171875 C 8.53125 1.421875 7.472656 1.445312 6.203125 1.25 C 4.648438 1.019531 3.492188 0.390625 2.734375 -0.640625 C 1.984375 -1.671875 1.738281 -3.003906 2 -4.640625 C 2.257812 -6.359375 3.050781 -7.53125 4.375 -8.15625 C 5.695312 -8.789062 7.578125 -8.96875 10.015625 -8.6875 L 12.84375 -8.34375 L 12.953125 -9.046875 C 13.203125 -10.691406 12.484375 -11.644531 10.796875 -11.90625 C 9.515625 -12.101562 7.941406 -11.945312 6.078125 -11.4375 L 5.0625 -14.640625 C 7.070312 -15.335938 9.207031 -15.507812 11.46875 -15.15625 C 13.644531 -14.820312 15.238281 -14.09375 16.25 -12.96875 C 17.257812 -11.84375 17.617188 -10.3125 17.328125 -8.375 L 15.671875 2.40625 Z M 12.453125 -5.765625 L 10.734375 -5.96875 C 9.441406 -6.125 8.445312 -6.035156 7.75 -5.703125 C 7.0625 -5.378906 6.648438 -4.78125 6.515625 -3.90625 C 6.328125 -2.664062 6.945312 -1.9375 8.375 -1.71875 C 9.394531 -1.5625 10.253906 -1.726562 10.953125 -2.21875 C 11.660156 -2.71875 12.09375 -3.453125 12.25 -4.421875 Z M 12.453125 -5.765625 "/></g></g></g><g fill="#ffffff" fill-opacity="1"><g transform="translate(220.147203, 36.310902)"><g><path d="M 6.625 1.5625 L 2.28125 0.53125 L 7.5 -21.65625 L 11.84375 -20.625 Z M 6.625 1.5625 "/></g></g></g><g fill="#ffffff" fill-opacity="1"><g transform="translate(228.22355, 37.946044)"><g><path d="M 13.265625 4.3125 L 13.328125 2.140625 L 13.109375 2.078125 C 12.421875 2.640625 11.59375 2.984375 10.625 3.109375 C 9.65625 3.234375 8.644531 3.125 7.59375 2.78125 C 5.757812 2.1875 4.535156 1.25 3.921875 -0.03125 C 3.304688 -1.3125 3.300781 -2.875 3.90625 -4.71875 L 7.203125 -14.875 L 11.453125 -13.5 L 8.5 -4.40625 C 8.132812 -3.28125 8.0625 -2.367188 8.28125 -1.671875 C 8.5 -0.984375 9.046875 -0.5 9.921875 -0.21875 C 11.109375 0.164062 12.09375 0.0507812 12.875 -0.5625 C 13.65625 -1.175781 14.347656 -2.40625 14.953125 -4.25 L 17.328125 -11.578125 L 21.578125 -10.203125 L 16.515625 5.375 Z M 13.265625 4.3125 "/></g></g></g><g fill="#ffffff" fill-opacity="1"><g transform="translate(245.80048, 43.587782)"><g><path d="M 15.890625 7.25 L 11.828125 5.40625 L 15.796875 -3.296875 C 16.296875 -4.367188 16.472656 -5.257812 16.328125 -5.96875 C 16.179688 -6.6875 15.691406 -7.238281 14.859375 -7.625 C 13.722656 -8.132812 12.726562 -8.128906 11.875 -7.609375 C 11.03125 -7.085938 10.207031 -5.941406 9.40625 -4.171875 L 6.203125 2.828125 L 2.125 0.96875 L 8.921875 -13.921875 L 12.03125 -12.5 L 11.71875 -10.34375 L 11.953125 -10.234375 C 12.722656 -10.753906 13.585938 -11.019531 14.546875 -11.03125 C 15.515625 -11.039062 16.507812 -10.816406 17.53125 -10.359375 C 19.257812 -9.566406 20.359375 -8.492188 20.828125 -7.140625 C 21.296875 -5.785156 21.128906 -4.222656 20.328125 -2.453125 Z M 15.890625 7.25 "/></g></g></g><g fill="#ffffff" fill-opacity="1"><g transform="translate(262.63781, 51.237538)"><g><path d="M 9.28125 -4.015625 C 8.445312 -2.628906 8.046875 -1.441406 8.078125 -0.453125 C 8.109375 0.523438 8.640625 1.320312 9.671875 1.9375 C 10.691406 2.550781 11.632812 2.640625 12.5 2.203125 C 13.375 1.765625 14.234375 0.847656 15.078125 -0.546875 C 15.910156 -1.941406 16.3125 -3.117188 16.28125 -4.078125 C 16.25 -5.046875 15.710938 -5.84375 14.671875 -6.46875 C 13.648438 -7.070312 12.703125 -7.164062 11.828125 -6.75 C 10.960938 -6.332031 10.113281 -5.421875 9.28125 -4.015625 Z M 19.015625 1.796875 C 17.648438 4.078125 15.972656 5.5 13.984375 6.0625 C 12.003906 6.632812 9.9375 6.28125 7.78125 5 C 6.425781 4.1875 5.410156 3.175781 4.734375 1.96875 C 4.054688 0.769531 3.769531 -0.546875 3.875 -1.984375 C 3.988281 -3.429688 4.488281 -4.890625 5.375 -6.359375 C 6.75 -8.660156 8.414062 -10.085938 10.375 -10.640625 C 12.332031 -11.203125 14.394531 -10.835938 16.5625 -9.546875 C 17.914062 -8.734375 18.929688 -7.722656 19.609375 -6.515625 C 20.296875 -5.316406 20.585938 -4 20.484375 -2.5625 C 20.390625 -1.132812 19.898438 0.316406 19.015625 1.796875 Z M 19.015625 1.796875 "/></g></g></g><g fill="#ffffff" fill-opacity="1"><g transform="translate(277.740436, 60.453663)"><g><path d="M 9.078125 -2.265625 L 6.15625 -4.34375 L 13.84375 -16.453125 L 17.984375 -13.5 Z M 2.625 -0.703125 C 3.09375 -1.378906 3.625 -1.757812 4.21875 -1.84375 C 4.820312 -1.9375 5.46875 -1.738281 6.15625 -1.25 C 6.820312 -0.78125 7.207031 -0.242188 7.3125 0.359375 C 7.425781 0.972656 7.253906 1.609375 6.796875 2.265625 C 6.347656 2.890625 5.8125 3.25 5.1875 3.34375 C 4.570312 3.445312 3.9375 3.265625 3.28125 2.796875 C 2.613281 2.316406 2.222656 1.773438 2.109375 1.171875 C 1.992188 0.566406 2.164062 -0.0546875 2.625 -0.703125 Z M 2.625 -0.703125 "/></g></g></g></svg>