<svg xmlns="http://www.w3.org/2000/svg" xmlns:xlink="http://www.w3.org/1999/xlink" width="500" zoomAndPan="magnify" viewBox="0 0 375 374.999991" height="500" preserveAspectRatio="xMidYMid meet" version="1.0"><defs><filter x="0%" y="0%" width="100%" height="100%" id="f94b09cabe"><feColorMatrix values="0 0 0 0 1 0 0 0 0 1 0 0 0 0 1 0 0 0 1 0" color-interpolation-filters="sRGB"/></filter><g/><mask id="cda5a43c0a"><g filter="url(#f94b09cabe)"><rect x="-37.5" width="450" fill="#000000" y="-37.499999" height="449.999989" fill-opacity="0.8"/></g></mask><clipPath id="3a01bf75c6"><path d="M 0 0 L 375 0 L 375 375 L 0 375 Z M 0 0 " clip-rule="nonzero"/></clipPath><clipPath id="ed9cf19ad9"><path d="M 187.5 0 C 83.945312 0 0 83.945312 0 187.5 C 0 291.054688 83.945312 375 187.5 375 C 291.054688 375 375 291.054688 375 187.5 C 375 83.945312 291.054688 0 187.5 0 Z M 187.5 0 " clip-rule="nonzero"/></clipPath><clipPath id="3374385139"><rect x="0" width="375" y="0" height="375"/></clipPath></defs><g mask="url(#cda5a43c0a)"><g transform="matrix(1, 0, 0, 1, 0, 0)"><g clip-path="url(#3374385139)"><g clip-path="url(#3a01bf75c6)"><g clip-path="url(#ed9cf19ad9)"><rect x="-82.5" width="540" fill="#9b2693" height="539.999987" y="-82.499998" fill-opacity="1"/></g></g></g></g></g><g fill="#ffffff" fill-opacity="1"><g transform="translate(52.398435, 258.374983)"><g><path d="M 47.375 -114.875 L 47.375 -86 L 93.9375 -86 L 93.9375 -59.15625 L 47.375 -59.15625 L 47.375 -27.859375 L 100.03125 -27.859375 L 100.03125 0 L 12.609375 0 L 12.609375 -142.71875 L 100.03125 -142.71875 L 100.03125 -114.875 Z M 47.375 -114.875 "/></g></g></g><g fill="#ffffff" fill-opacity="1"><g transform="translate(162.388968, 258.374983)"><g><path d="M 114.265625 24.390625 L 95.96875 -0.203125 C 90.539062 0.878906 85.253906 1.421875 80.109375 1.421875 C 66.691406 1.421875 54.390625 -1.691406 43.203125 -7.921875 C 32.023438 -14.160156 23.144531 -22.867188 16.5625 -34.046875 C 9.988281 -45.234375 6.703125 -57.804688 6.703125 -71.765625 C 6.703125 -85.722656 9.988281 -98.257812 16.5625 -109.375 C 23.144531 -120.488281 32.023438 -129.164062 43.203125 -135.40625 C 54.390625 -141.644531 66.691406 -144.765625 80.109375 -144.765625 C 93.523438 -144.765625 105.820312 -141.644531 117 -135.40625 C 128.1875 -129.164062 137 -120.488281 143.4375 -109.375 C 149.875 -98.257812 153.09375 -85.722656 153.09375 -71.765625 C 153.09375 -59.566406 150.617188 -48.414062 145.671875 -38.3125 C 140.722656 -28.21875 133.84375 -19.851562 125.03125 -13.21875 L 156.34375 24.390625 Z M 42.28125 -71.765625 C 42.28125 -59.160156 45.703125 -49.097656 52.546875 -41.578125 C 59.398438 -34.054688 68.585938 -30.296875 80.109375 -30.296875 C 91.492188 -30.296875 100.609375 -34.085938 107.453125 -41.671875 C 114.296875 -49.265625 117.71875 -59.296875 117.71875 -71.765625 C 117.71875 -84.367188 114.296875 -94.429688 107.453125 -101.953125 C 100.609375 -109.484375 91.492188 -113.25 80.109375 -113.25 C 68.585938 -113.25 59.398438 -109.519531 52.546875 -102.0625 C 45.703125 -94.601562 42.28125 -84.503906 42.28125 -71.765625 Z M 42.28125 -71.765625 "/></g></g></g><g fill="#ffffff" fill-opacity="1"><g transform="translate(87.510256, 73.636953)"><g><path d="M 2.453125 -1.859375 L -12.9375 -22.125 L -0.703125 -31.421875 L 0.953125 -29.25 L -8.8125 -21.828125 L -3.625 -14.984375 L 5.515625 -21.9375 L 7.171875 -19.765625 L -1.96875 -12.8125 L 3.265625 -5.90625 L 13.1875 -13.453125 L 14.84375 -11.28125 Z M 2.453125 -1.859375 "/></g></g></g><g fill="#ffffff" fill-opacity="1"><g transform="translate(102.989656, 61.865228)"><g><path d="M 6.453125 -20.984375 L 4.578125 -19.015625 C 4.003906 -19.453125 3.3125 -19.765625 2.5 -19.953125 C 1.6875 -20.140625 0.726562 -19.910156 -0.375 -19.265625 C -1.382812 -18.671875 -2.085938 -17.945312 -2.484375 -17.09375 C -2.878906 -16.25 -2.867188 -15.46875 -2.453125 -14.75 C -2.085938 -14.125 -1.566406 -13.765625 -0.890625 -13.671875 C -0.222656 -13.578125 0.664062 -13.695312 1.78125 -14.03125 L 4.578125 -14.859375 C 7.921875 -15.867188 10.257812 -15.242188 11.59375 -12.984375 C 12.144531 -12.046875 12.363281 -11.039062 12.25 -9.96875 C 12.132812 -8.90625 11.722656 -7.878906 11.015625 -6.890625 C 10.316406 -5.898438 9.328125 -5.023438 8.046875 -4.265625 C 6.359375 -3.273438 4.75 -2.820312 3.21875 -2.90625 C 1.695312 -2.988281 0.378906 -3.648438 -0.734375 -4.890625 L 1.3125 -6.875 C 2.800781 -5.375 4.59375 -5.242188 6.6875 -6.484375 C 7.863281 -7.171875 8.648438 -7.96875 9.046875 -8.875 C 9.441406 -9.789062 9.429688 -10.601562 9.015625 -11.3125 C 8.328125 -12.476562 7.0625 -12.773438 5.21875 -12.203125 L 2.109375 -11.203125 C 0.398438 -10.679688 -1.023438 -10.585938 -2.171875 -10.921875 C -3.328125 -11.265625 -4.242188 -12.007812 -4.921875 -13.15625 C -5.460938 -14.070312 -5.679688 -15.039062 -5.578125 -16.0625 C -5.472656 -17.09375 -5.082031 -18.078125 -4.40625 -19.015625 C -3.738281 -19.960938 -2.828125 -20.78125 -1.671875 -21.46875 C -0.046875 -22.425781 1.441406 -22.820312 2.796875 -22.65625 C 4.160156 -22.488281 5.378906 -21.929688 6.453125 -20.984375 Z M 6.453125 -20.984375 "/></g></g></g><g fill="#ffffff" fill-opacity="1"><g transform="translate(117.469205, 53.209309)"><g><path d="M 9.6875 -3.875 C 8.050781 -3.15625 6.472656 -2.914062 4.953125 -3.15625 C 3.429688 -3.40625 2.050781 -4.066406 0.8125 -5.140625 C -0.414062 -6.222656 -1.421875 -7.632812 -2.203125 -9.375 C -2.984375 -11.144531 -3.347656 -12.847656 -3.296875 -14.484375 C -3.253906 -16.128906 -2.8125 -17.597656 -1.96875 -18.890625 C -1.132812 -20.191406 0.0664062 -21.191406 1.640625 -21.890625 C 2.867188 -22.441406 4.078125 -22.707031 5.265625 -22.6875 C 6.453125 -22.664062 7.539062 -22.382812 8.53125 -21.84375 C 9.519531 -21.300781 10.332031 -20.523438 10.96875 -19.515625 L 8.28125 -18.3125 C 7.726562 -19.007812 6.960938 -19.515625 5.984375 -19.828125 C 5.015625 -20.140625 3.9375 -20.03125 2.75 -19.5 C 1.195312 -18.8125 0.203125 -17.65625 -0.234375 -16.03125 C -0.671875 -14.414062 -0.445312 -12.617188 0.4375 -10.640625 C 1.332031 -8.628906 2.523438 -7.222656 4.015625 -6.421875 C 5.503906 -5.628906 7.039062 -5.582031 8.625 -6.28125 C 9.675781 -6.75 10.453125 -7.414062 10.953125 -8.28125 C 11.460938 -9.15625 11.628906 -10.117188 11.453125 -11.171875 L 14.140625 -12.375 C 14.441406 -11.28125 14.476562 -10.191406 14.25 -9.109375 C 14.019531 -8.023438 13.523438 -7.023438 12.765625 -6.109375 C 12.003906 -5.191406 10.976562 -4.445312 9.6875 -3.875 Z M 9.6875 -3.875 "/></g></g></g><g fill="#ffffff" fill-opacity="1"><g transform="translate(134.209124, 45.867412)"><g><path d="M 2.546875 -0.84375 L -3.453125 -18.96875 L -0.765625 -19.859375 L 0.140625 -17.125 L 0.328125 -17.1875 C 0.367188 -18.1875 0.726562 -19.109375 1.40625 -19.953125 C 2.082031 -20.796875 2.960938 -21.398438 4.046875 -21.765625 C 4.554688 -21.929688 5.019531 -22.015625 5.4375 -22.015625 C 5.851562 -22.023438 6.234375 -21.972656 6.578125 -21.859375 L 6.421875 -19.203125 C 6.191406 -19.234375 5.929688 -19.234375 5.640625 -19.203125 C 5.359375 -19.179688 5.046875 -19.113281 4.703125 -19 C 3.390625 -18.5625 2.4375 -17.796875 1.84375 -16.703125 C 1.25 -15.609375 1.148438 -14.453125 1.546875 -13.234375 L 5.34375 -1.765625 Z M 2.546875 -0.84375 "/></g></g></g><g fill="#ffffff" fill-opacity="1"><g transform="translate(145.671419, 41.818333)"><g><path d="M 10.515625 -1.9375 C 8.722656 -1.539062 7.085938 -1.59375 5.609375 -2.09375 C 4.140625 -2.59375 2.894531 -3.484375 1.875 -4.765625 C 0.851562 -6.054688 0.132812 -7.65625 -0.28125 -9.5625 C -0.707031 -11.46875 -0.734375 -13.226562 -0.359375 -14.84375 C 0.015625 -16.457031 0.738281 -17.816406 1.8125 -18.921875 C 2.894531 -20.023438 4.273438 -20.765625 5.953125 -21.140625 C 6.921875 -21.347656 7.914062 -21.394531 8.9375 -21.28125 C 9.96875 -21.164062 10.945312 -20.832031 11.875 -20.28125 C 12.8125 -19.738281 13.640625 -18.921875 14.359375 -17.828125 C 15.085938 -16.734375 15.644531 -15.316406 16.03125 -13.578125 L 16.3125 -12.359375 L 2.78125 -9.375 C 3.28125 -7.40625 4.179688 -6.003906 5.484375 -5.171875 C 6.785156 -4.347656 8.273438 -4.125 9.953125 -4.5 C 11.078125 -4.75 11.988281 -5.203125 12.6875 -5.859375 C 13.382812 -6.523438 13.816406 -7.382812 13.984375 -8.4375 L 16.90625 -8.265625 C 16.78125 -6.773438 16.15625 -5.453125 15.03125 -4.296875 C 13.90625 -3.140625 12.398438 -2.351562 10.515625 -1.9375 Z M 2.21875 -11.859375 L 12.828125 -14.203125 C 12.484375 -15.785156 11.738281 -16.992188 10.59375 -17.828125 C 9.445312 -18.660156 8.09375 -18.90625 6.53125 -18.5625 C 5.445312 -18.320312 4.554688 -17.859375 3.859375 -17.171875 C 3.171875 -16.484375 2.6875 -15.664062 2.40625 -14.71875 C 2.132812 -13.78125 2.070312 -12.828125 2.21875 -11.859375 Z M 2.21875 -11.859375 "/></g></g></g><g fill="#ffffff" fill-opacity="1"><g transform="translate(164.089721, 37.675059)"><g><path d="M 16.328125 -20.796875 L 11.1875 -1.109375 L 8.203125 -0.8125 L -0.6875 -19.109375 L 2.484375 -19.421875 L 9.21875 -4.8125 L 9.421875 -4.828125 L 13.15625 -20.484375 Z M 16.328125 -20.796875 "/></g></g></g><g fill="#ffffff" fill-opacity="1"><g transform="translate(181.979218, 35.791938)"><g><path d="M 10.671875 0.625 C 8.835938 0.582031 7.265625 0.140625 5.953125 -0.703125 C 4.640625 -1.546875 3.640625 -2.710938 2.953125 -4.203125 C 2.273438 -5.691406 1.957031 -7.410156 2 -9.359375 C 2.039062 -11.316406 2.429688 -13.035156 3.171875 -14.515625 C 3.921875 -15.992188 4.945312 -17.140625 6.25 -17.953125 C 7.5625 -18.765625 9.078125 -19.15625 10.796875 -19.125 C 11.785156 -19.101562 12.765625 -18.914062 13.734375 -18.5625 C 14.703125 -18.207031 15.570312 -17.648438 16.34375 -16.890625 C 17.125 -16.140625 17.738281 -15.148438 18.1875 -13.921875 C 18.632812 -12.691406 18.835938 -11.1875 18.796875 -9.40625 L 18.78125 -8.15625 L 4.921875 -8.453125 C 4.941406 -6.410156 5.484375 -4.832031 6.546875 -3.71875 C 7.617188 -2.613281 9.015625 -2.039062 10.734375 -2 C 11.890625 -1.976562 12.882812 -2.207031 13.71875 -2.6875 C 14.5625 -3.175781 15.179688 -3.910156 15.578125 -4.890625 L 18.390625 -4.03125 C 17.910156 -2.601562 16.988281 -1.457031 15.625 -0.59375 C 14.257812 0.257812 12.609375 0.664062 10.671875 0.625 Z M 4.96875 -11 L 15.84375 -10.765625 C 15.875 -12.378906 15.429688 -13.726562 14.515625 -14.8125 C 13.597656 -15.894531 12.34375 -16.453125 10.75 -16.484375 C 9.632812 -16.503906 8.660156 -16.257812 7.828125 -15.75 C 6.992188 -15.25 6.328125 -14.570312 5.828125 -13.71875 C 5.335938 -12.875 5.050781 -11.96875 4.96875 -11 Z M 4.96875 -11 "/></g></g></g><g fill="#ffffff" fill-opacity="1"><g transform="translate(200.821463, 36.09759)"><g><path d="M 7.203125 -10.546875 L 5.5625 0.8125 L 2.65625 0.390625 L 5.390625 -18.5 L 8.1875 -18.09375 L 7.765625 -15.140625 L 8.015625 -15.109375 C 8.597656 -16.003906 9.382812 -16.679688 10.375 -17.140625 C 11.363281 -17.597656 12.566406 -17.722656 13.984375 -17.515625 C 15.910156 -17.234375 17.375 -16.421875 18.375 -15.078125 C 19.375 -13.742188 19.695312 -11.867188 19.34375 -9.453125 L 17.609375 2.546875 L 14.703125 2.125 L 16.421875 -9.6875 C 16.628906 -11.175781 16.410156 -12.390625 15.765625 -13.328125 C 15.117188 -14.265625 14.117188 -14.832031 12.765625 -15.03125 C 11.378906 -15.226562 10.164062 -14.941406 9.125 -14.171875 C 8.082031 -13.410156 7.441406 -12.203125 7.203125 -10.546875 Z M 7.203125 -10.546875 "/></g></g></g><g fill="#ffffff" fill-opacity="1"><g transform="translate(219.544323, 38.670177)"><g><path d="M 9.421875 3.015625 C 7.890625 2.585938 6.644531 1.820312 5.6875 0.71875 C 4.738281 -0.375 4.128906 -1.722656 3.859375 -3.328125 C 3.597656 -4.941406 3.738281 -6.722656 4.28125 -8.671875 C 4.8125 -10.597656 5.601562 -12.179688 6.65625 -13.421875 C 7.71875 -14.660156 8.941406 -15.503906 10.328125 -15.953125 C 11.722656 -16.398438 13.195312 -16.410156 14.75 -15.984375 C 15.945312 -15.648438 16.835938 -15.1875 17.421875 -14.59375 C 18.015625 -14.007812 18.425781 -13.414062 18.65625 -12.8125 C 18.894531 -12.207031 19.078125 -11.71875 19.203125 -11.34375 L 19.421875 -11.28125 L 21.921875 -20.328125 L 24.765625 -19.546875 L 17.96875 4.984375 L 15.234375 4.234375 L 16.015625 1.40625 L 15.6875 1.3125 C 15.382812 1.59375 14.96875 1.929688 14.4375 2.328125 C 13.914062 2.734375 13.242188 3.03125 12.421875 3.21875 C 11.609375 3.414062 10.609375 3.347656 9.421875 3.015625 Z M 10.515625 0.59375 C 12.210938 1.0625 13.695312 0.773438 14.96875 -0.265625 C 16.238281 -1.316406 17.160156 -2.890625 17.734375 -4.984375 C 18.304688 -7.035156 18.320312 -8.820312 17.78125 -10.34375 C 17.238281 -11.863281 16.109375 -12.863281 14.390625 -13.34375 C 13.179688 -13.675781 12.09375 -13.644531 11.125 -13.25 C 10.164062 -12.863281 9.34375 -12.203125 8.65625 -11.265625 C 7.976562 -10.335938 7.457031 -9.226562 7.09375 -7.9375 C 6.726562 -6.625 6.601562 -5.378906 6.71875 -4.203125 C 6.832031 -3.023438 7.195312 -2.007812 7.8125 -1.15625 C 8.425781 -0.3125 9.328125 0.269531 10.515625 0.59375 Z M 10.515625 0.59375 "/></g></g></g><g fill="#ffffff" fill-opacity="1"><g transform="translate(238.954435, 43.976781)"><g><path d="M 9.46875 4.40625 C 7.882812 3.738281 6.648438 2.773438 5.765625 1.515625 C 4.890625 0.265625 4.40625 -1.175781 4.3125 -2.8125 C 4.21875 -4.445312 4.554688 -6.179688 5.328125 -8.015625 C 6.085938 -9.835938 7.085938 -11.289062 8.328125 -12.375 C 9.578125 -13.457031 10.957031 -14.128906 12.46875 -14.390625 C 13.988281 -14.648438 15.539062 -14.445312 17.125 -13.78125 C 18.71875 -13.101562 19.953125 -12.132812 20.828125 -10.875 C 21.703125 -9.613281 22.179688 -8.160156 22.265625 -6.515625 C 22.359375 -4.867188 22.023438 -3.132812 21.265625 -1.3125 C 20.492188 0.519531 19.488281 1.972656 18.25 3.046875 C 17.007812 4.117188 15.632812 4.78125 14.125 5.03125 C 12.613281 5.289062 11.0625 5.082031 9.46875 4.40625 Z M 10.484375 1.984375 C 11.691406 2.492188 12.816406 2.601562 13.859375 2.3125 C 14.898438 2.019531 15.816406 1.445312 16.609375 0.59375 C 17.410156 -0.25 18.0625 -1.265625 18.5625 -2.453125 C 19.050781 -3.617188 19.320312 -4.785156 19.375 -5.953125 C 19.425781 -7.128906 19.195312 -8.191406 18.6875 -9.140625 C 18.175781 -10.097656 17.316406 -10.832031 16.109375 -11.34375 C 14.898438 -11.84375 13.769531 -11.945312 12.71875 -11.65625 C 11.675781 -11.363281 10.753906 -10.785156 9.953125 -9.921875 C 9.148438 -9.066406 8.503906 -8.054688 8.015625 -6.890625 C 7.515625 -5.703125 7.238281 -4.523438 7.1875 -3.359375 C 7.144531 -2.203125 7.378906 -1.144531 7.890625 -0.1875 C 8.410156 0.757812 9.273438 1.484375 10.484375 1.984375 Z M 10.484375 1.984375 "/></g></g></g><g fill="#ffffff" fill-opacity="1"><g transform="translate(257.034419, 51.805577)"><g/></g></g><g fill="#ffffff" fill-opacity="1"><g transform="translate(264.850193, 55.647881)"><g><path d="M 11.015625 -6.5 L 4.703125 3.09375 L 2.25 1.484375 L 12.734375 -14.46875 L 15.09375 -12.921875 L 13.453125 -10.421875 L 13.65625 -10.28125 C 14.570312 -10.851562 15.570312 -11.132812 16.65625 -11.125 C 17.738281 -11.113281 18.882812 -10.71875 20.09375 -9.9375 C 21.707031 -8.863281 22.6875 -7.503906 23.03125 -5.859375 C 23.375 -4.222656 22.875 -2.382812 21.53125 -0.34375 L 14.875 9.78125 L 12.421875 8.171875 L 18.984375 -1.796875 C 19.804688 -3.054688 20.117188 -4.25 19.921875 -5.375 C 19.734375 -6.5 19.070312 -7.4375 17.9375 -8.1875 C 16.769531 -8.957031 15.550781 -9.21875 14.28125 -8.96875 C 13.019531 -8.71875 11.929688 -7.894531 11.015625 -6.5 Z M 11.015625 -6.5 "/></g></g></g><g fill="#ffffff" fill-opacity="1"><g transform="translate(280.734707, 66.011213)"><g><path d="M 6.03125 5.703125 C 5.113281 4.921875 4.429688 4.035156 3.984375 3.046875 C 3.535156 2.054688 3.367188 1.039062 3.484375 0 C 3.609375 -1.039062 4.070312 -2.035156 4.875 -2.984375 C 5.582031 -3.816406 6.316406 -4.351562 7.078125 -4.59375 C 7.847656 -4.84375 8.632812 -4.878906 9.4375 -4.703125 C 10.238281 -4.535156 11.035156 -4.238281 11.828125 -3.8125 C 12.628906 -3.394531 13.40625 -2.945312 14.15625 -2.46875 C 15.132812 -1.84375 15.921875 -1.328125 16.515625 -0.921875 C 17.117188 -0.515625 17.613281 -0.269531 18 -0.1875 C 18.382812 -0.113281 18.726562 -0.257812 19.03125 -0.625 L 19.09375 -0.703125 C 19.894531 -1.640625 20.257812 -2.582031 20.1875 -3.53125 C 20.113281 -4.476562 19.5625 -5.390625 18.53125 -6.265625 C 17.457031 -7.171875 16.421875 -7.644531 15.421875 -7.6875 C 14.421875 -7.738281 13.570312 -7.601562 12.875 -7.28125 L 11.375 -9.828125 C 12.507812 -10.398438 13.601562 -10.664062 14.65625 -10.625 C 15.707031 -10.582031 16.695312 -10.34375 17.625 -9.90625 C 18.5625 -9.46875 19.398438 -8.9375 20.140625 -8.3125 C 20.597656 -7.914062 21.082031 -7.40625 21.59375 -6.78125 C 22.113281 -6.15625 22.515625 -5.425781 22.796875 -4.59375 C 23.078125 -3.769531 23.113281 -2.851562 22.90625 -1.84375 C 22.707031 -0.832031 22.117188 0.253906 21.140625 1.421875 L 13.015625 11.015625 L 10.78125 9.125 L 12.453125 7.15625 L 12.328125 7.0625 C 11.910156 7.238281 11.375 7.359375 10.71875 7.421875 C 10.0625 7.484375 9.328125 7.390625 8.515625 7.140625 C 7.710938 6.898438 6.882812 6.421875 6.03125 5.703125 Z M 8.078125 3.984375 C 8.960938 4.722656 9.859375 5.175781 10.765625 5.34375 C 11.679688 5.519531 12.523438 5.46875 13.296875 5.1875 C 14.078125 4.90625 14.726562 4.460938 15.25 3.859375 L 16.984375 1.796875 C 16.796875 1.828125 16.5 1.753906 16.09375 1.578125 C 15.695312 1.398438 15.265625 1.171875 14.796875 0.890625 C 14.328125 0.609375 13.875 0.320312 13.4375 0.03125 C 13.007812 -0.25 12.660156 -0.472656 12.390625 -0.640625 C 11.753906 -1.054688 11.109375 -1.394531 10.453125 -1.65625 C 9.804688 -1.914062 9.191406 -2.007812 8.609375 -1.9375 C 8.023438 -1.863281 7.492188 -1.539062 7.015625 -0.96875 C 6.347656 -0.1875 6.132812 0.640625 6.375 1.515625 C 6.625 2.398438 7.191406 3.222656 8.078125 3.984375 Z M 8.078125 3.984375 "/></g></g></g><g fill="#ffffff" fill-opacity="1"><g transform="translate(294.824326, 78.158535)"><g/></g></g><g fill="#ffffff" fill-opacity="1"><g transform="translate(301.174537, 83.82107)"><g><path d="M 25.234375 11.34375 C 23.347656 12.832031 21.453125 13.832031 19.546875 14.34375 C 17.640625 14.851562 15.835938 14.925781 14.140625 14.5625 L 12.734375 19.921875 L 10.640625 17.265625 L 11.59375 13.65625 C 10.226562 12.945312 9.035156 11.953125 8.015625 10.671875 C 6.660156 8.960938 5.875 7.117188 5.65625 5.140625 C 5.4375 3.160156 5.789062 1.179688 6.71875 -0.796875 C 7.65625 -2.773438 9.175781 -4.597656 11.28125 -6.265625 C 13.375 -7.929688 15.488281 -8.988281 17.625 -9.4375 C 19.769531 -9.894531 21.78125 -9.789062 23.65625 -9.125 C 25.53125 -8.457031 27.144531 -7.269531 28.5 -5.5625 C 29.84375 -3.863281 30.625 -2.023438 30.84375 -0.046875 C 31.070312 1.929688 30.71875 3.90625 29.78125 5.875 C 28.84375 7.851562 27.328125 9.675781 25.234375 11.34375 Z M 13.890625 4.71875 L 15.984375 7.375 L 14.875 11.703125 C 16.144531 11.941406 17.503906 11.847656 18.953125 11.421875 C 20.398438 11.003906 21.878906 10.195312 23.390625 9 C 25.109375 7.632812 26.332031 6.191406 27.0625 4.671875 C 27.789062 3.160156 28.078125 1.675781 27.921875 0.21875 C 27.765625 -1.238281 27.207031 -2.570312 26.25 -3.78125 C 25.289062 -4.988281 24.113281 -5.84375 22.71875 -6.34375 C 21.332031 -6.84375 19.816406 -6.90625 18.171875 -6.53125 C 16.535156 -6.15625 14.859375 -5.285156 13.140625 -3.921875 C 11.410156 -2.554688 10.175781 -1.117188 9.4375 0.390625 C 8.707031 1.898438 8.421875 3.390625 8.578125 4.859375 C 8.742188 6.328125 9.304688 7.664062 10.265625 8.875 C 10.867188 9.632812 11.566406 10.257812 12.359375 10.75 Z M 13.890625 4.71875 "/></g></g></g><g fill="#ffffff" fill-opacity="1"><g transform="translate(316.545416, 103.376689)"><g><path d="M 14.171875 8.765625 L 23.90625 3.0625 L 25.390625 5.59375 L 8.90625 15.234375 L 7.421875 12.703125 L 10.21875 11.078125 L 10.125 10.90625 C 9.050781 11 7.984375 10.8125 6.921875 10.34375 C 5.867188 9.875 4.976562 9.015625 4.25 7.765625 C 3.34375 6.222656 3.109375 4.648438 3.546875 3.046875 C 3.992188 1.441406 5.265625 0.0234375 7.359375 -1.203125 L 17.84375 -7.328125 L 19.328125 -4.78125 L 9.015625 1.25 C 7.828125 1.945312 7.066406 2.84375 6.734375 3.9375 C 6.398438 5.03125 6.539062 6.101562 7.15625 7.15625 C 7.53125 7.789062 8.070312 8.335938 8.78125 8.796875 C 9.488281 9.253906 10.300781 9.515625 11.21875 9.578125 C 12.144531 9.640625 13.128906 9.367188 14.171875 8.765625 Z M 14.171875 8.765625 "/></g></g></g><g fill="#ffffff" fill-opacity="1"><g transform="translate(326.116935, 119.558723)"><g><path d="M 3.875 9.96875 C 3.144531 8.289062 2.890625 6.675781 3.109375 5.125 C 3.328125 3.570312 3.972656 2.175781 5.046875 0.9375 C 6.117188 -0.289062 7.550781 -1.289062 9.34375 -2.0625 C 11.144531 -2.832031 12.867188 -3.1875 14.515625 -3.125 C 16.171875 -3.070312 17.640625 -2.617188 18.921875 -1.765625 C 20.210938 -0.910156 21.195312 0.304688 21.875 1.890625 C 22.269531 2.796875 22.503906 3.757812 22.578125 4.78125 C 22.660156 5.8125 22.519531 6.835938 22.15625 7.859375 C 21.789062 8.878906 21.140625 9.847656 20.203125 10.765625 C 19.273438 11.679688 17.992188 12.492188 16.359375 13.203125 L 15.203125 13.703125 L 9.71875 0.96875 C 7.875 1.832031 6.664062 2.976562 6.09375 4.40625 C 5.53125 5.84375 5.59375 7.347656 6.28125 8.921875 C 6.738281 9.984375 7.359375 10.796875 8.140625 11.359375 C 8.929688 11.921875 9.859375 12.179688 10.921875 12.140625 L 11.296875 15.046875 C 9.796875 15.210938 8.375 14.851562 7.03125 13.96875 C 5.6875 13.082031 4.632812 11.75 3.875 9.96875 Z M 12.0625 -0.046875 L 16.359375 9.9375 C 17.835938 9.300781 18.878906 8.335938 19.484375 7.046875 C 20.097656 5.765625 20.085938 4.394531 19.453125 2.9375 C 19.015625 1.90625 18.390625 1.113281 17.578125 0.5625 C 16.773438 0.0078125 15.882812 -0.304688 14.90625 -0.390625 C 13.925781 -0.484375 12.976562 -0.367188 12.0625 -0.046875 Z M 12.0625 -0.046875 "/></g></g></g><g fill="#ffffff" fill-opacity="1"><g transform="translate(333.690997, 136.768365)"><g><path d="M 0.859375 2.953125 L 25.3125 -4.09375 L 26.125 -1.265625 L 17.109375 1.328125 L 17.171875 1.5625 C 17.554688 1.6875 18.046875 1.863281 18.640625 2.09375 C 19.242188 2.320312 19.84375 2.722656 20.4375 3.296875 C 21.039062 3.878906 21.515625 4.769531 21.859375 5.96875 C 22.296875 7.5 22.296875 8.96875 21.859375 10.375 C 21.429688 11.78125 20.601562 13.015625 19.375 14.078125 C 18.144531 15.148438 16.566406 15.96875 14.640625 16.53125 C 12.703125 17.082031 10.925781 17.234375 9.3125 16.984375 C 7.707031 16.734375 6.347656 16.132812 5.234375 15.1875 C 4.117188 14.238281 3.34375 13 2.90625 11.46875 C 2.5625 10.300781 2.484375 9.304688 2.671875 8.484375 C 2.859375 7.660156 3.148438 6.984375 3.546875 6.453125 C 3.941406 5.921875 4.28125 5.503906 4.5625 5.203125 L 4.46875 4.875 L 1.640625 5.6875 Z M 10.828125 3.09375 C 8.742188 3.6875 7.179688 4.617188 6.140625 5.890625 C 5.097656 7.171875 4.820312 8.660156 5.3125 10.359375 C 5.644531 11.546875 6.238281 12.445312 7.09375 13.0625 C 7.957031 13.675781 8.972656 14.023438 10.140625 14.109375 C 11.316406 14.203125 12.5625 14.0625 13.875 13.6875 C 15.164062 13.3125 16.269531 12.78125 17.1875 12.09375 C 18.113281 11.40625 18.769531 10.578125 19.15625 9.609375 C 19.539062 8.640625 19.5625 7.554688 19.21875 6.359375 C 18.71875 4.640625 17.707031 3.515625 16.1875 2.984375 C 14.664062 2.460938 12.878906 2.5 10.828125 3.09375 Z M 10.828125 3.09375 "/></g></g></g><g fill="#ffffff" fill-opacity="1"><g transform="translate(339.193812, 156.394797)"><g><path d="M 0.46875 2.640625 L 19.265625 -0.6875 L 19.75 2.109375 L 16.90625 2.609375 L 16.953125 2.796875 C 17.941406 2.984375 18.804688 3.472656 19.546875 4.265625 C 20.285156 5.054688 20.753906 6.019531 20.953125 7.15625 C 21.046875 7.675781 21.0625 8.140625 21 8.546875 C 20.945312 8.960938 20.84375 9.335938 20.6875 9.671875 L 18.0625 9.109375 C 18.144531 8.878906 18.191406 8.625 18.203125 8.34375 C 18.210938 8.0625 18.1875 7.742188 18.125 7.390625 C 17.882812 6.023438 17.265625 4.96875 16.265625 4.21875 C 15.265625 3.46875 14.132812 3.203125 12.875 3.421875 L 0.984375 5.53125 Z M 0.46875 2.640625 "/></g></g></g><g fill="#ffffff" fill-opacity="1"><g transform="translate(341.527777, 168.347287)"><g><path d="M 0.171875 8.296875 C 0.078125 7.097656 0.222656 5.988281 0.609375 4.96875 C 1.003906 3.945312 1.613281 3.117188 2.4375 2.484375 C 3.269531 1.847656 4.304688 1.484375 5.546875 1.390625 C 6.640625 1.304688 7.539062 1.445312 8.25 1.8125 C 8.957031 2.1875 9.53125 2.71875 9.96875 3.40625 C 10.414062 4.101562 10.769531 4.882812 11.03125 5.75 C 11.289062 6.613281 11.507812 7.476562 11.6875 8.34375 C 11.9375 9.488281 12.125 10.414062 12.25 11.125 C 12.382812 11.84375 12.554688 12.363281 12.765625 12.6875 C 12.984375 13.007812 13.332031 13.148438 13.8125 13.109375 L 13.90625 13.109375 C 15.125 13.015625 16.046875 12.609375 16.671875 11.890625 C 17.304688 11.179688 17.570312 10.148438 17.46875 8.796875 C 17.363281 7.398438 16.972656 6.328125 16.296875 5.578125 C 15.628906 4.835938 14.9375 4.332031 14.21875 4.0625 L 14.984375 1.21875 C 16.191406 1.613281 17.148438 2.203125 17.859375 2.984375 C 18.578125 3.765625 19.097656 4.640625 19.421875 5.609375 C 19.753906 6.578125 19.957031 7.546875 20.03125 8.515625 C 20.082031 9.117188 20.066406 9.828125 19.984375 10.640625 C 19.898438 11.453125 19.660156 12.242188 19.265625 13.015625 C 18.878906 13.796875 18.253906 14.46875 17.390625 15.03125 C 16.523438 15.59375 15.335938 15.929688 13.828125 16.046875 L 1.28125 17 L 1.0625 14.078125 L 3.640625 13.890625 L 3.625 13.734375 C 3.207031 13.566406 2.742188 13.269531 2.234375 12.84375 C 1.722656 12.414062 1.269531 11.828125 0.875 11.078125 C 0.488281 10.335938 0.253906 9.410156 0.171875 8.296875 Z M 2.84375 8.546875 C 2.9375 9.703125 3.238281 10.664062 3.75 11.4375 C 4.257812 12.207031 4.890625 12.765625 5.640625 13.109375 C 6.390625 13.460938 7.160156 13.613281 7.953125 13.5625 L 10.625 13.359375 C 10.46875 13.242188 10.3125 12.976562 10.15625 12.5625 C 10.007812 12.15625 9.867188 11.6875 9.734375 11.15625 C 9.609375 10.625 9.492188 10.101562 9.390625 9.59375 C 9.296875 9.09375 9.21875 8.6875 9.15625 8.375 C 9 7.632812 8.785156 6.941406 8.515625 6.296875 C 8.253906 5.648438 7.890625 5.140625 7.421875 4.765625 C 6.960938 4.398438 6.359375 4.25 5.609375 4.3125 C 4.585938 4.382812 3.847656 4.816406 3.390625 5.609375 C 2.941406 6.410156 2.757812 7.390625 2.84375 8.546875 Z M 2.84375 8.546875 "/></g></g></g><g fill="#ffffff" fill-opacity="1"><g transform="translate(343.060275, 186.463305)"><g><path d="M -0.875 9.859375 C -0.789062 8.265625 -0.316406 6.878906 0.546875 5.703125 C 1.410156 4.535156 2.597656 3.644531 4.109375 3.03125 C 5.617188 2.414062 7.378906 2.160156 9.390625 2.265625 C 11.390625 2.359375 13.109375 2.785156 14.546875 3.546875 C 15.992188 4.304688 17.085938 5.3125 17.828125 6.5625 C 18.578125 7.820312 18.914062 9.253906 18.84375 10.859375 C 18.78125 12.109375 18.523438 13.085938 18.078125 13.796875 C 17.628906 14.503906 17.140625 15.035156 16.609375 15.390625 C 16.078125 15.753906 15.640625 16.035156 15.296875 16.234375 L 15.28125 16.46875 L 24.65625 16.9375 L 24.515625 19.875 L -0.90625 18.625 L -0.765625 15.796875 L 2.171875 15.9375 L 2.1875 15.59375 C 1.84375 15.363281 1.414062 15.035156 0.90625 14.609375 C 0.394531 14.191406 -0.0390625 13.601562 -0.40625 12.84375 C -0.78125 12.082031 -0.9375 11.085938 -0.875 9.859375 Z M 1.734375 10.390625 C 1.648438 12.148438 2.257812 13.535156 3.5625 14.546875 C 4.875 15.554688 6.609375 16.113281 8.765625 16.21875 C 10.898438 16.320312 12.644531 15.9375 14 15.0625 C 15.363281 14.195312 16.09375 12.875 16.1875 11.09375 C 16.25 9.84375 15.976562 8.789062 15.375 7.9375 C 14.78125 7.09375 13.953125 6.4375 12.890625 5.96875 C 11.835938 5.507812 10.640625 5.25 9.296875 5.1875 C 7.929688 5.113281 6.6875 5.257812 5.5625 5.625 C 4.445312 6 3.546875 6.578125 2.859375 7.359375 C 2.171875 8.148438 1.796875 9.160156 1.734375 10.390625 Z M 1.734375 10.390625 "/></g></g></g><g fill="#ffffff" fill-opacity="1"><g transform="translate(342.108869, 206.603273)"><g><path d="M -1.890625 8.09375 C -1.679688 6.90625 -1.257812 5.863281 -0.625 4.96875 C 0 4.082031 0.789062 3.425781 1.75 3 C 2.71875 2.582031 3.8125 2.484375 5.03125 2.703125 C 6.101562 2.890625 6.9375 3.253906 7.53125 3.796875 C 8.132812 4.335938 8.566406 4.992188 8.828125 5.765625 C 9.085938 6.546875 9.238281 7.382812 9.28125 8.28125 C 9.320312 9.175781 9.316406 10.070312 9.265625 10.96875 C 9.222656 12.132812 9.175781 13.078125 9.125 13.796875 C 9.082031 14.523438 9.125 15.070312 9.25 15.4375 C 9.375 15.800781 9.675781 16.023438 10.15625 16.109375 L 10.25 16.125 C 11.457031 16.332031 12.453125 16.164062 13.234375 15.625 C 14.015625 15.09375 14.523438 14.160156 14.765625 12.828125 C 15.003906 11.441406 14.890625 10.304688 14.421875 9.421875 C 13.960938 8.546875 13.414062 7.882812 12.78125 7.4375 L 14.234375 4.875 C 15.296875 5.550781 16.070312 6.359375 16.5625 7.296875 C 17.0625 8.234375 17.351562 9.207031 17.4375 10.21875 C 17.53125 11.238281 17.492188 12.222656 17.328125 13.171875 C 17.222656 13.773438 17.03125 14.457031 16.75 15.21875 C 16.46875 15.988281 16.039062 16.703125 15.46875 17.359375 C 14.894531 18.023438 14.125 18.523438 13.15625 18.859375 C 12.1875 19.191406 10.953125 19.226562 9.453125 18.96875 L -2.9375 16.796875 L -2.4375 13.90625 L 0.109375 14.34375 L 0.140625 14.203125 C -0.234375 13.941406 -0.613281 13.539062 -1 13 C -1.394531 12.457031 -1.6875 11.773438 -1.875 10.953125 C -2.070312 10.140625 -2.078125 9.1875 -1.890625 8.09375 Z M 0.640625 9 C 0.441406 10.132812 0.5 11.132812 0.8125 12 C 1.132812 12.875 1.613281 13.570312 2.25 14.09375 C 2.882812 14.625 3.585938 14.957031 4.359375 15.09375 L 7.015625 15.5625 C 6.890625 15.414062 6.800781 15.125 6.75 14.6875 C 6.707031 14.25 6.691406 13.753906 6.703125 13.203125 C 6.710938 12.660156 6.726562 12.128906 6.75 11.609375 C 6.78125 11.097656 6.800781 10.6875 6.8125 10.375 C 6.851562 9.601562 6.820312 8.875 6.71875 8.1875 C 6.613281 7.5 6.378906 6.921875 6.015625 6.453125 C 5.660156 5.984375 5.113281 5.679688 4.375 5.546875 C 3.363281 5.367188 2.539062 5.609375 1.90625 6.265625 C 1.269531 6.929688 0.847656 7.84375 0.640625 9 Z M 0.640625 9 "/></g></g></g><g fill="#ffffff" fill-opacity="1"><g transform="translate(60.117373, 306.968523)"><g><path d="M 25.25 -6.5625 L 28.75 -3.578125 L 9.28125 7.953125 L 5.515625 4.734375 L 13.9375 -16.265625 L 17.40625 -13.28125 L 12.171875 -0.96875 C 11.859375 -0.257812 11.46875 0.550781 11 1.46875 C 10.53125 2.382812 10.191406 3.007812 9.984375 3.34375 C 10.648438 2.738281 11.953125 1.785156 13.890625 0.484375 Z M 25.25 -6.5625 "/></g></g></g><g fill="#ffffff" fill-opacity="1"><g transform="translate(75.922645, 320.365232)"><g><path d="M 15.171875 -5.984375 C 14.390625 -6.515625 13.609375 -6.679688 12.828125 -6.484375 C 12.046875 -6.296875 11.3125 -5.765625 10.625 -4.890625 L 15.796875 -1.359375 C 16.398438 -2.285156 16.640625 -3.148438 16.515625 -3.953125 C 16.398438 -4.765625 15.953125 -5.441406 15.171875 -5.984375 Z M 7.875 5.765625 C 5.695312 4.273438 4.410156 2.507812 4.015625 0.46875 C 3.617188 -1.570312 4.171875 -3.691406 5.671875 -5.890625 C 7.222656 -8.148438 8.988281 -9.507812 10.96875 -9.96875 C 12.957031 -10.4375 14.945312 -9.988281 16.9375 -8.625 C 18.84375 -7.3125 19.957031 -5.742188 20.28125 -3.921875 C 20.601562 -2.109375 20.109375 -0.242188 18.796875 1.671875 L 17.5625 3.453125 L 8.84375 -2.515625 C 8.164062 -1.441406 7.914062 -0.410156 8.09375 0.578125 C 8.28125 1.566406 8.894531 2.421875 9.9375 3.140625 C 10.75 3.691406 11.570312 4.132812 12.40625 4.46875 C 13.25 4.800781 14.195312 5.050781 15.25 5.21875 L 13.28125 8.078125 C 12.414062 7.941406 11.5625 7.703125 10.71875 7.359375 C 9.875 7.015625 8.925781 6.484375 7.875 5.765625 Z M 7.875 5.765625 "/></g></g></g><g fill="#ffffff" fill-opacity="1"><g transform="translate(91.686982, 331.531601)"><g><path d="M 15.203125 7.625 L 11.21875 5.625 L 15.5 -2.921875 C 16.039062 -3.984375 16.265625 -4.863281 16.171875 -5.5625 C 16.078125 -6.269531 15.648438 -6.816406 14.890625 -7.203125 C 13.859375 -7.710938 12.925781 -7.707031 12.09375 -7.1875 C 11.257812 -6.675781 10.410156 -5.5625 9.546875 -3.84375 L 6.09375 3.046875 L 2.09375 1.046875 L 9.4375 -13.59375 L 12.484375 -12.0625 L 12.09375 -9.921875 L 12.3125 -9.796875 C 13.039062 -10.273438 13.867188 -10.519531 14.796875 -10.53125 C 15.734375 -10.539062 16.6875 -10.304688 17.65625 -9.828125 C 19.84375 -8.722656 20.960938 -7.257812 21.015625 -5.4375 L 21.375 -5.25 C 22.113281 -5.738281 22.957031 -5.976562 23.90625 -5.96875 C 24.851562 -5.96875 25.804688 -5.726562 26.765625 -5.25 C 28.429688 -4.414062 29.472656 -3.359375 29.890625 -2.078125 C 30.316406 -0.796875 30.054688 0.785156 29.109375 2.671875 L 24.328125 12.203125 L 20.328125 10.1875 L 24.609375 1.640625 C 25.148438 0.578125 25.375 -0.300781 25.28125 -1 C 25.1875 -1.707031 24.757812 -2.25 24 -2.625 C 23.019531 -3.113281 22.113281 -3.128906 21.28125 -2.671875 C 20.445312 -2.222656 19.648438 -1.238281 18.890625 0.28125 Z M 15.203125 7.625 "/></g></g></g><g fill="#ffffff" fill-opacity="1"><g transform="translate(119.375807, 344.696552)"><g/></g></g><g fill="#ffffff" fill-opacity="1"><g transform="translate(127.342022, 347.768803)"><g><path d="M 14.578125 -0.703125 C 14.097656 0.898438 13.171875 1.957031 11.796875 2.46875 C 10.429688 2.976562 8.640625 2.898438 6.421875 2.234375 C 5.273438 1.890625 4.316406 1.519531 3.546875 1.125 C 2.785156 0.726562 2.101562 0.273438 1.5 -0.234375 L 2.5625 -3.765625 C 3.25 -3.160156 4.050781 -2.578125 4.96875 -2.015625 C 5.894531 -1.460938 6.734375 -1.078125 7.484375 -0.859375 C 9.046875 -0.390625 9.960938 -0.601562 10.234375 -1.5 C 10.328125 -1.84375 10.300781 -2.144531 10.15625 -2.40625 C 10.007812 -2.675781 9.726562 -3.023438 9.3125 -3.453125 C 8.894531 -3.878906 8.3125 -4.390625 7.5625 -4.984375 C 6.507812 -5.859375 5.765625 -6.59375 5.328125 -7.1875 C 4.890625 -7.78125 4.625 -8.394531 4.53125 -9.03125 C 4.445312 -9.675781 4.523438 -10.398438 4.765625 -11.203125 C 5.179688 -12.597656 6.046875 -13.515625 7.359375 -13.953125 C 8.671875 -14.398438 10.320312 -14.328125 12.3125 -13.734375 C 14.195312 -13.160156 15.90625 -12.191406 17.4375 -10.828125 L 15.234375 -8.125 C 14.546875 -8.707031 13.890625 -9.207031 13.265625 -9.625 C 12.648438 -10.050781 11.988281 -10.367188 11.28125 -10.578125 C 10.007812 -10.960938 9.273438 -10.816406 9.078125 -10.140625 C 8.953125 -9.742188 9.050781 -9.34375 9.375 -8.9375 C 9.707031 -8.539062 10.484375 -7.859375 11.703125 -6.890625 C 12.773438 -6.023438 13.53125 -5.289062 13.96875 -4.6875 C 14.40625 -4.09375 14.675781 -3.472656 14.78125 -2.828125 C 14.882812 -2.191406 14.816406 -1.484375 14.578125 -0.703125 Z M 14.578125 -0.703125 "/></g></g></g><g fill="#ffffff" fill-opacity="1"><g transform="translate(142.647387, 352.383073)"><g><path d="M 11.609375 -11.4375 C 10.671875 -11.625 9.878906 -11.472656 9.234375 -10.984375 C 8.585938 -10.503906 8.125 -9.734375 7.84375 -8.671875 L 13.984375 -7.4375 C 14.179688 -8.519531 14.066406 -9.410156 13.640625 -10.109375 C 13.210938 -10.804688 12.535156 -11.25 11.609375 -11.4375 Z M 9.5 2.203125 C 6.914062 1.691406 5.035156 0.578125 3.859375 -1.140625 C 2.691406 -2.867188 2.367188 -5.039062 2.890625 -7.65625 C 3.429688 -10.34375 4.523438 -12.285156 6.171875 -13.484375 C 7.816406 -14.679688 9.828125 -15.046875 12.203125 -14.578125 C 14.460938 -14.117188 16.097656 -13.113281 17.109375 -11.5625 C 18.117188 -10.019531 18.394531 -8.109375 17.9375 -5.828125 L 17.515625 -3.703125 L 7.15625 -5.78125 C 6.957031 -4.53125 7.128906 -3.484375 7.671875 -2.640625 C 8.222656 -1.804688 9.125 -1.265625 10.375 -1.015625 C 11.332031 -0.816406 12.257812 -0.726562 13.15625 -0.75 C 14.0625 -0.78125 15.03125 -0.929688 16.0625 -1.203125 L 15.390625 2.203125 C 14.546875 2.421875 13.664062 2.539062 12.75 2.5625 C 11.832031 2.582031 10.75 2.460938 9.5 2.203125 Z M 9.5 2.203125 "/></g></g></g><g fill="#ffffff" fill-opacity="1"><g transform="translate(161.057773, 355.927187)"><g><path d="M 13.203125 -15.359375 C 13.796875 -15.296875 14.289062 -15.195312 14.6875 -15.0625 L 13.90625 -10.921875 C 13.5625 -11.066406 13.132812 -11.164062 12.625 -11.21875 C 11.207031 -11.375 10.0625 -11.128906 9.1875 -10.484375 C 8.3125 -9.835938 7.800781 -8.859375 7.65625 -7.546875 L 6.765625 0.734375 L 2.328125 0.25 L 4.078125 -16.03125 L 7.453125 -15.671875 L 7.8125 -12.859375 L 8.03125 -12.84375 C 8.632812 -13.695312 9.394531 -14.359375 10.3125 -14.828125 C 11.226562 -15.296875 12.191406 -15.472656 13.203125 -15.359375 Z M 13.203125 -15.359375 "/></g></g></g><g fill="#ffffff" fill-opacity="1"><g transform="translate(175.306502, 357.34685)"><g/></g></g><g fill="#ffffff" fill-opacity="1"><g transform="translate(184.323705, 358.271235)"><g><path d="M 16.96875 -1.0625 L 12.515625 -0.78125 L 11.921875 -10.328125 C 11.847656 -11.515625 11.597656 -12.382812 11.171875 -12.9375 C 10.742188 -13.5 10.101562 -13.753906 9.25 -13.703125 C 8.101562 -13.628906 7.296875 -13.160156 6.828125 -12.296875 C 6.367188 -11.429688 6.195312 -10.035156 6.3125 -8.109375 L 6.796875 -0.421875 L 2.34375 -0.140625 L 1.328125 -16.484375 L 4.71875 -16.703125 L 5.453125 -14.640625 L 5.703125 -14.65625 C 6.097656 -15.4375 6.695312 -16.066406 7.5 -16.546875 C 8.300781 -17.023438 9.242188 -17.296875 10.328125 -17.359375 C 12.765625 -17.515625 14.460938 -16.816406 15.421875 -15.265625 L 15.828125 -15.296875 C 16.222656 -16.078125 16.832031 -16.707031 17.65625 -17.1875 C 18.488281 -17.664062 19.4375 -17.9375 20.5 -18 C 22.351562 -18.113281 23.785156 -17.722656 24.796875 -16.828125 C 25.804688 -15.929688 26.375 -14.4375 26.5 -12.34375 L 27.171875 -1.6875 L 22.6875 -1.421875 L 22.09375 -10.96875 C 22.019531 -12.15625 21.765625 -13.023438 21.328125 -13.578125 C 20.898438 -14.140625 20.265625 -14.394531 19.421875 -14.34375 C 18.335938 -14.269531 17.546875 -13.828125 17.046875 -13.015625 C 16.546875 -12.210938 16.347656 -10.960938 16.453125 -9.265625 Z M 16.96875 -1.0625 "/></g></g></g><g fill="#ffffff" fill-opacity="1"><g transform="translate(215.227207, 355.838)"><g><path d="M 6.296875 -15.03125 C 5.359375 -14.84375 4.679688 -14.398438 4.265625 -13.703125 C 3.859375 -13.015625 3.726562 -12.125 3.875 -11.03125 L 10.03125 -12.265625 C 9.789062 -13.335938 9.335938 -14.113281 8.671875 -14.59375 C 8.015625 -15.070312 7.222656 -15.21875 6.296875 -15.03125 Z M 9.625 -1.625 C 7.039062 -1.101562 4.875 -1.410156 3.125 -2.546875 C 1.382812 -3.691406 0.25 -5.570312 -0.28125 -8.1875 C -0.820312 -10.875 -0.566406 -13.085938 0.484375 -14.828125 C 1.535156 -16.566406 3.25 -17.675781 5.625 -18.15625 C 7.882812 -18.613281 9.773438 -18.320312 11.296875 -17.28125 C 12.828125 -16.238281 13.820312 -14.578125 14.28125 -12.296875 L 14.71875 -10.171875 L 4.375 -8.09375 C 4.675781 -6.851562 5.238281 -5.953125 6.0625 -5.390625 C 6.894531 -4.835938 7.929688 -4.6875 9.171875 -4.9375 C 10.140625 -5.125 11.03125 -5.40625 11.84375 -5.78125 C 12.664062 -6.15625 13.5 -6.664062 14.34375 -7.3125 L 15.03125 -3.90625 C 14.34375 -3.375 13.582031 -2.921875 12.75 -2.546875 C 11.914062 -2.179688 10.875 -1.875 9.625 -1.625 Z M 9.625 -1.625 "/></g></g></g><g fill="#ffffff" fill-opacity="1"><g transform="translate(234.2213, 352.314359)"><g><path d="M 16.0625 -5.578125 L 11.84375 -4.125 L 8.703125 -13.15625 C 8.304688 -14.28125 7.828125 -15.050781 7.265625 -15.46875 C 6.703125 -15.894531 6.015625 -15.96875 5.203125 -15.6875 C 4.117188 -15.3125 3.472656 -14.640625 3.265625 -13.671875 C 3.054688 -12.710938 3.269531 -11.328125 3.90625 -9.515625 L 6.4375 -2.234375 L 2.21875 -0.765625 L -3.15625 -16.234375 L 0.0625 -17.359375 L 1.3125 -15.578125 L 1.5625 -15.65625 C 1.71875 -16.507812 2.113281 -17.273438 2.75 -17.953125 C 3.394531 -18.628906 4.234375 -19.144531 5.265625 -19.5 C 7.578125 -20.300781 9.40625 -20.085938 10.75 -18.859375 L 11.125 -18.984375 C 11.289062 -19.847656 11.707031 -20.617188 12.375 -21.296875 C 13.039062 -21.984375 13.878906 -22.503906 14.890625 -22.859375 C 16.640625 -23.460938 18.117188 -23.46875 19.328125 -22.875 C 20.546875 -22.289062 21.503906 -21.003906 22.203125 -19.015625 L 25.703125 -8.9375 L 21.46875 -7.46875 L 18.328125 -16.5 C 17.929688 -17.625 17.445312 -18.394531 16.875 -18.8125 C 16.3125 -19.238281 15.632812 -19.3125 14.84375 -19.03125 C 13.8125 -18.675781 13.164062 -18.039062 12.90625 -17.125 C 12.65625 -16.207031 12.804688 -14.945312 13.359375 -13.34375 Z M 16.0625 -5.578125 "/></g></g></g><g fill="#ffffff" fill-opacity="1"><g transform="translate(263.381519, 341.665238)"><g><path d="M 2.5625 -20.078125 C 4.28125 -20.960938 5.96875 -20.984375 7.625 -20.140625 C 9.289062 -19.296875 10.726562 -17.707031 11.9375 -15.375 C 13.164062 -12.96875 13.617188 -10.84375 13.296875 -9 C 12.972656 -7.164062 11.953125 -5.804688 10.234375 -4.921875 C 8.515625 -4.035156 6.847656 -3.960938 5.234375 -4.703125 L 4.953125 -4.5625 L 5.109375 -2.625 L 2.078125 -1.078125 L -8.34375 -21.359375 L -4.359375 -23.390625 L -1.921875 -18.65625 C -1.617188 -18.0625 -1.179688 -17.078125 -0.609375 -15.703125 L -0.453125 -15.78125 C -0.265625 -17.707031 0.738281 -19.140625 2.5625 -20.078125 Z M 2.921875 -16.234375 C 1.941406 -15.722656 1.378906 -15.050781 1.234375 -14.21875 C 1.097656 -13.394531 1.378906 -12.28125 2.078125 -10.875 L 2.296875 -10.453125 C 3.097656 -8.878906 3.90625 -7.875 4.71875 -7.4375 C 5.53125 -7 6.441406 -7.039062 7.453125 -7.5625 C 8.265625 -7.976562 8.71875 -8.6875 8.8125 -9.6875 C 8.90625 -10.6875 8.582031 -11.898438 7.84375 -13.328125 C 7.101562 -14.753906 6.304688 -15.703125 5.453125 -16.171875 C 4.609375 -16.648438 3.765625 -16.671875 2.921875 -16.234375 Z M 2.921875 -16.234375 "/></g></g></g><g fill="#ffffff" fill-opacity="1"><g transform="translate(281.133538, 332.348274)"><g><path d="M 0.6875 -20.25 C 1.195312 -20.570312 1.648438 -20.800781 2.046875 -20.9375 L 4 -17.21875 C 3.644531 -17.113281 3.253906 -16.925781 2.828125 -16.65625 C 1.617188 -15.882812 0.875 -14.972656 0.59375 -13.921875 C 0.320312 -12.878906 0.539062 -11.800781 1.25 -10.6875 L 5.734375 -3.671875 L 1.96875 -1.265625 L -6.84375 -15.0625 L -3.984375 -16.890625 L -1.953125 -14.921875 L -1.78125 -15.046875 C -1.832031 -16.085938 -1.644531 -17.078125 -1.21875 -18.015625 C -0.789062 -18.960938 -0.15625 -19.707031 0.6875 -20.25 Z M 0.6875 -20.25 "/></g></g></g><g fill="#ffffff" fill-opacity="1"><g transform="translate(293.541123, 324.49351)"><g><path d="M -0.390625 -10.109375 C 0.609375 -8.828125 1.570312 -8.019531 2.5 -7.6875 C 3.425781 -7.363281 4.359375 -7.570312 5.296875 -8.3125 C 6.242188 -9.039062 6.671875 -9.890625 6.578125 -10.859375 C 6.484375 -11.835938 5.9375 -12.972656 4.9375 -14.265625 C 3.9375 -15.546875 2.976562 -16.34375 2.0625 -16.65625 C 1.15625 -16.96875 0.226562 -16.75 -0.71875 -16 C -1.65625 -15.269531 -2.085938 -14.425781 -2.015625 -13.46875 C -1.941406 -12.519531 -1.398438 -11.398438 -0.390625 -10.109375 Z M 8.546875 -17.078125 C 10.179688 -14.972656 10.90625 -12.894531 10.71875 -10.84375 C 10.539062 -8.789062 9.460938 -6.992188 7.484375 -5.453125 C 6.242188 -4.484375 4.9375 -3.898438 3.5625 -3.703125 C 2.195312 -3.503906 0.863281 -3.71875 -0.4375 -4.34375 C -1.75 -4.96875 -2.929688 -5.957031 -3.984375 -7.3125 C -5.628906 -9.425781 -6.359375 -11.5 -6.171875 -13.53125 C -5.984375 -15.5625 -4.890625 -17.351562 -2.890625 -18.90625 C -1.648438 -19.875 -0.347656 -20.457031 1.015625 -20.65625 C 2.378906 -20.851562 3.707031 -20.644531 5 -20.03125 C 6.300781 -19.414062 7.484375 -18.429688 8.546875 -17.078125 Z M 8.546875 -17.078125 "/></g></g></g><g fill="#ffffff" fill-opacity="1"><g transform="translate(308.748982, 312.35945)"><g><path d="M -0.296875 -9.359375 L -2.9375 -6.953125 L -13.15625 -17 L -9.40625 -20.421875 Z M -0.140625 -2.703125 C -0.703125 -3.304688 -0.960938 -3.910156 -0.921875 -4.515625 C -0.878906 -5.117188 -0.546875 -5.703125 0.078125 -6.265625 C 0.679688 -6.816406 1.289062 -7.082031 1.90625 -7.0625 C 2.519531 -7.050781 3.097656 -6.75 3.640625 -6.15625 C 4.160156 -5.582031 4.40625 -4.984375 4.375 -4.359375 C 4.34375 -3.734375 4.03125 -3.148438 3.4375 -2.609375 C 2.832031 -2.054688 2.21875 -1.785156 1.59375 -1.796875 C 0.96875 -1.816406 0.390625 -2.117188 -0.140625 -2.703125 Z M -0.140625 -2.703125 "/></g></g></g></svg>